<?xml version="1.0" encoding="UTF-8" standalone="no"?>
<svg
   xmlns:dc="http://purl.org/dc/elements/1.1/"
   xmlns:cc="http://creativecommons.org/ns#"
   xmlns:rdf="http://www.w3.org/1999/02/22-rdf-syntax-ns#"
   xmlns:svg="http://www.w3.org/2000/svg"
   xmlns="http://www.w3.org/2000/svg"
   xmlns:sodipodi="http://sodipodi.sourceforge.net/DTD/sodipodi-0.dtd"
   xmlns:inkscape="http://www.inkscape.org/namespaces/inkscape"
   width="221.3452"
   height="346"
   viewBox="0 0 221.3452 346"
   id="svg2160"
   sodipodi:version="0.32"
   inkscape:version="0.48.3.1 r9886"
   sodipodi:docname="bltb.svg"
   inkscape:output_extension="org.inkscape.output.svg.inkscape"
   version="1.1"
   inkscape:export-filename="/home/jmerelo/txt/ocio/bolaextra/bltb.png"
   inkscape:export-xdpi="72"
   inkscape:export-ydpi="72">
  <metadata
     id="metadata2179">
    <rdf:RDF>
      <cc:Work
         rdf:about="">
        <dc:format>image/svg+xml</dc:format>
        <dc:type
           rdf:resource="http://purl.org/dc/dcmitype/StillImage" />
        <dc:title>Diane de Poitiers (Diana of Poitiers) interlaced three crescents emblem (partial Borromean rings)</dc:title>
      </cc:Work>
    </rdf:RDF>
  </metadata>
  <defs
     id="defs2177">
    <clipPath
       clipPathUnits="userSpaceOnUse"
       id="clipPath2785">
      <path
         style="fill:#000000;fill-opacity:1;fill-rule:evenodd;stroke:#000000;stroke-width:1px;stroke-linecap:butt;stroke-linejoin:miter;stroke-opacity:1"
         d="M 310.40625,473.59375 227.1875,363.1875 l 104,-75.1875 104,76.8125 -124.78125,108.78125 z m 4.78125,-332.78125 -96,-67.21875 112,-64 113.625,44.8125 -129.625,86.40625 z"
         id="path2787"
         inkscape:connector-curvature="0" />
    </clipPath>
  </defs>
  <sodipodi:namedview
     inkscape:window-height="776"
     inkscape:window-width="1215"
     inkscape:pageshadow="2"
     inkscape:pageopacity="0.0"
     guidetolerance="10.0"
     gridtolerance="10.0"
     objecttolerance="10.0"
     borderopacity="1.0"
     bordercolor="#666666"
     pagecolor="#ffffff"
     id="base"
     inkscape:zoom="1.0073737"
     inkscape:cx="-294.35791"
     inkscape:cy="61.487112"
     inkscape:window-x="65"
     inkscape:window-y="24"
     inkscape:current-layer="svg2160"
     showgrid="false"
     inkscape:window-maximized="1"
     fit-margin-top="0"
     fit-margin-left="0"
     fit-margin-right="0"
     fit-margin-bottom="0" />
  <title
     id="title2162">Diane de Poitiers (Diana of Poitiers) interlaced three crescents emblem (partial Borromean rings)</title>
  <rect
     x="-659.75067"
     y="29.049555"
     height="389.55179"
     width="296.66437"
     id="rect2164"
     style="fill:#ffffff;fill-opacity:1" />
  <g
     transform="matrix(0.53744875,0,0,-0.53744875,-11.672715,352.46588)"
     id="g2166"
     style="fill:#00ff00;stroke:none"
     inkscape:export-filename="/home/jmerelo/txt/ocio/bolaextra/bltb.png"
     inkscape:export-xdpi="72"
     inkscape:export-ydpi="72">
    <path
       d="M 23.734177,122.77509 C 62.970078,55.161848 135.29778,13.615514 213.47138,13.786622 334.31785,14.053447 432.06732,112.23405 431.80187,233.08087 431.53591,353.92684 333.35444,451.67682 212.50848,451.41086 134.33438,451.23889 62.189934,409.37471 23.251608,341.58727 57.16734,385.98904 109.80529,412.09195 165.67839,412.21426 264.93396,412.43293 345.57413,332.14663 345.7928,232.89107 346.01147,133.63549 265.72517,52.995321 166.4696,52.776651 110.59736,52.653833 57.844567,78.524098 23.734177,122.77509 z"
       id="path2168"
       style="fill:#00ff00;fill-opacity:1;stroke:#000000;stroke-width:3.5;stroke-linejoin:miter;stroke-miterlimit:4;stroke-opacity:1;stroke-dasharray:none"
       inkscape:connector-curvature="0" />
    <path
       d="M 24.194212,346.98375 C 59.454126,283.77312 124.45247,244.93206 194.70432,245.09203 303.30476,245.34148 391.14875,337.12909 390.9102,450.10701 390.67119,563.08414 302.43898,654.46916 193.83899,654.22052 123.5867,654.05975 58.753042,614.92154 23.760543,551.54806 c 30.478866,41.51056 77.782727,65.91379 127.993907,66.02813 89.19747,0.20444 161.66593,-74.85405 161.86244,-167.64662 0.19651,-92.79259 -71.95394,-168.1819 -161.15141,-168.38634 -50.2104,-0.11482 -97.617468,24.07092 -128.271268,65.44052 z"
       id="path2168-0"
       style="fill:#00ff00;fill-opacity:1;stroke:#000000;stroke-width:3.20808625;stroke-linejoin:miter;stroke-miterlimit:4;stroke-opacity:1;stroke-dasharray:none"
       inkscape:connector-curvature="0" />
  </g>
  <path
     style="fill:#008000;stroke-width:10;stroke-linecap:round;stroke-linejoin:round;stroke-miterlimit:4;stroke-dasharray:none"
     d="m 84.962155,219.30741 c -20.02432,-1.95866 -37.21637,-8.50017 -53.12993,-20.21577 -5.87823,-4.32755 -18.39543,-16.3868 -17.71518,-17.06704 0.15308,-0.15309 2.53122,1.41518 5.28476,3.48503 9.91605,7.45397 23.8642,13.32853 36.93717,15.55688 5.49649,0.9369 7.94278,1.06311 16.08559,0.82983 13.83015,-0.39619 22.41189,-2.42383 34.244025,-8.09094 10.70269,-5.12616 17.51597,-10.11563 26.11377,-19.12352 13.0445,-13.66668 21.42753,-31.20878 24.27008,-50.78696 0.88573,-6.10056 0.87396,-20.50279 -0.0216,-26.408981 -3.05649,-20.15771 -11.32824,-37.1043 -25.09802,-51.419117 -13.58949,-14.1274 -30.19005,-22.68009 -49.904975,-25.71131 -7.69387,-1.18294 -21.64779,-0.7963 -28.98364,0.8031 -13.14115,2.8651 -25.30867,8.45018 -35.21626,16.16481 -1.85857,1.44719 -3.51082,2.49966 -3.67166,2.33882 -0.69565,-0.69565 10.39514,-11.5735 16.9209,-16.59602 20.20167,-15.5481396 47.1121,-23.22436962 71.912125,-20.5130296 39.6024,4.32965 73.26949,31.1975796 87.38797,69.7397166 4.55649,12.43883 6.68404,24.69632 6.68785,38.530891 0.004,13.69993 -2.11968,25.94424 -6.66171,38.41307 -13.86331,38.05773 -47.2393,65.00945 -86.23145,69.63347 -6.057405,0.71835 -14.394815,0.90804 -19.209795,0.43707 l 0,0 z"
     id="path3033"
     inkscape:connector-curvature="0"
     inkscape:export-filename="/home/jmerelo/txt/ocio/bolaextra/bltb.png"
     inkscape:export-xdpi="72"
     inkscape:export-ydpi="72" />
</svg>
