<?xml version="1.0" encoding="UTF-8" standalone="no"?>
<!-- Created with Inkscape (http://www.inkscape.org/) -->

<svg
   xmlns:dc="http://purl.org/dc/elements/1.1/"
   xmlns:cc="http://creativecommons.org/ns#"
   xmlns:rdf="http://www.w3.org/1999/02/22-rdf-syntax-ns#"
   xmlns:svg="http://www.w3.org/2000/svg"
   xmlns="http://www.w3.org/2000/svg"
   xmlns:sodipodi="http://sodipodi.sourceforge.net/DTD/sodipodi-0.dtd"
   xmlns:inkscape="http://www.inkscape.org/namespaces/inkscape"
   width="50"
   height="50"
   id="svg3336"
   version="1.1"
   inkscape:version="0.48.3.1 r9886"
   sodipodi:docname="comentarista4.svg"
   inkscape:export-filename="/home/jmerelo/txt/ocio/bolaextra/comentarista4.png"
   inkscape:export-xdpi="72"
   inkscape:export-ydpi="72">
  <title
     id="title3408">personnage</title>
  <defs
     id="defs3338">
    <inkscape:perspective
       sodipodi:type="inkscape:persp3d"
       inkscape:vp_x="0 : 526.18109 : 1"
       inkscape:vp_y="0 : 1000 : 0"
       inkscape:vp_z="744.09448 : 526.18109 : 1"
       inkscape:persp3d-origin="372.04724 : 350.78739 : 1"
       id="perspective3344" />
    <inkscape:perspective
       id="perspective3315"
       inkscape:persp3d-origin="0.5 : 0.33333333 : 1"
       inkscape:vp_z="1 : 0.5 : 1"
       inkscape:vp_y="0 : 1000 : 0"
       inkscape:vp_x="0 : 0.5 : 1"
       sodipodi:type="inkscape:persp3d" />
    <inkscape:perspective
       id="perspective3592"
       inkscape:persp3d-origin="0.5 : 0.33333333 : 1"
       inkscape:vp_z="1 : 0.5 : 1"
       inkscape:vp_y="0 : 1000 : 0"
       inkscape:vp_x="0 : 0.5 : 1"
       sodipodi:type="inkscape:persp3d" />
    <inkscape:perspective
       id="perspective3680"
       inkscape:persp3d-origin="0.5 : 0.33333333 : 1"
       inkscape:vp_z="1 : 0.5 : 1"
       inkscape:vp_y="0 : 1000 : 0"
       inkscape:vp_x="0 : 0.5 : 1"
       sodipodi:type="inkscape:persp3d" />
    <inkscape:perspective
       id="perspective3780"
       inkscape:persp3d-origin="0.5 : 0.33333333 : 1"
       inkscape:vp_z="1 : 0.5 : 1"
       inkscape:vp_y="0 : 1000 : 0"
       inkscape:vp_x="0 : 0.5 : 1"
       sodipodi:type="inkscape:persp3d" />
    <inkscape:perspective
       id="perspective3910"
       inkscape:persp3d-origin="0.5 : 0.33333333 : 1"
       inkscape:vp_z="1 : 0.5 : 1"
       inkscape:vp_y="0 : 1000 : 0"
       inkscape:vp_x="0 : 0.5 : 1"
       sodipodi:type="inkscape:persp3d" />
    <inkscape:perspective
       id="perspective4004"
       inkscape:persp3d-origin="0.5 : 0.33333333 : 1"
       inkscape:vp_z="1 : 0.5 : 1"
       inkscape:vp_y="0 : 1000 : 0"
       inkscape:vp_x="0 : 0.5 : 1"
       sodipodi:type="inkscape:persp3d" />
    <inkscape:perspective
       id="perspective4092"
       inkscape:persp3d-origin="0.5 : 0.33333333 : 1"
       inkscape:vp_z="1 : 0.5 : 1"
       inkscape:vp_y="0 : 1000 : 0"
       inkscape:vp_x="0 : 0.5 : 1"
       sodipodi:type="inkscape:persp3d" />
  </defs>
  <sodipodi:namedview
     id="base"
     pagecolor="#ffffff"
     bordercolor="#666666"
     borderopacity="1.0"
     inkscape:pageopacity="0.0"
     inkscape:pageshadow="2"
     inkscape:zoom="7.919596"
     inkscape:cx="53.750622"
     inkscape:cy="21.583012"
     inkscape:document-units="px"
     inkscape:current-layer="layer1"
     showgrid="false"
     inkscape:window-width="1203"
     inkscape:window-height="639"
     inkscape:window-x="65"
     inkscape:window-y="45"
     inkscape:window-maximized="0" />
  <metadata
     id="metadata3341">
    <rdf:RDF>
      <cc:Work
         rdf:about="">
        <dc:format>image/svg+xml</dc:format>
        <dc:type
           rdf:resource="http://purl.org/dc/dcmitype/StillImage" />
        <dc:title>personnage</dc:title>
        <dc:creator>
          <cc:Agent>
            <dc:title>Antoine Bardelli</dc:title>
          </cc:Agent>
        </dc:creator>
        <dc:rights>
          <cc:Agent>
            <dc:title>Creaives Commons 2.0 Paternité / Licence Art Libre</dc:title>
          </cc:Agent>
        </dc:rights>
        <dc:language>Fr</dc:language>
        <dc:source>http://bardelli.fr/</dc:source>
      </cc:Work>
    </rdf:RDF>
  </metadata>
  <g
     inkscape:label="Calque 1"
     inkscape:groupmode="layer"
     id="layer1"
     transform="translate(0,-1002.3622)">
    <path
       style="fill:#f5fffa;fill-opacity:1;stroke:none"
       d="m 12.439349,1037.2577 c 2.828099,3.9516 11.920839,4.1884 13.340465,2.9962 l 10.577534,-6.7103 c 4.775217,-3.4668 5.829081,-10.1059 2.362264,-14.8811 l -0.625944,-0.8622 c -3.466823,-4.7751 -10.105906,-5.8291 -14.881122,-2.3622 l -9.771263,7.8209 c -2.049215,3.3675 -4.0152152,9.7888 -1.001934,13.9987 z"
       id="path4978-8-6"
       sodipodi:nodetypes="cccccccs"
       inkscape:connector-curvature="0" />
    <path
       style="font-size:medium;font-style:normal;font-variant:normal;font-weight:normal;font-stretch:normal;text-indent:0;text-align:start;text-decoration:none;line-height:normal;letter-spacing:normal;word-spacing:normal;text-transform:none;direction:ltr;block-progression:tb;writing-mode:lr-tb;text-anchor:start;color:#000000;fill:#000000;fill-opacity:1;fill-rule:nonzero;stroke:none;stroke-width:1.77165353;marker:none;visibility:visible;display:inline;overflow:visible;enable-background:accumulate;font-family:Abberancy;-inkscape-font-specification:Abberancy"
       d="m 24.25,8.15625 c -4.43203,0.2646 -11.69954,3.47365 -13,13.78125 L 11.21875,22 c -0.692687,4.691862 0.866898,-0.731142 -0.59375,4.46875 -0.381317,4.204434 1.185653,2.251957 0.375,3.8125 1.759888,-0.157325 0.437542,3.153392 2.375,1.15625 0.0819,0.307 0.22695,0.56475 0.40625,0.78125 l 0,0.1875 0,0.15625 0.0625,0.125 c 0.80852,1.9329 2.23472,4.25395 4.1875,6.15625 1.95278,1.9023 4.48215,3.418 7.375,3.4375 2.8705,0.019 5.56172,-1.97065 7.625,-4.09375 1.03164,-1.0616 1.91421,-2.1851 2.53125,-3.1875 0.58801,-0.9553 0.9871,-1.71045 0.96875,-2.59375 l 0.03125,0 0,-0.125 0,-0.125 c 1.862157,-6.278606 3.871056,3.830072 3.28125,-6.125 -1.419473,-6.34941 -0.208661,-1.858329 -0.59375,-4.5 l -0.6875,-2.3125 -0.03125,0.0625 c -2.07283,-9.1421 -4.929721,-11.086 -9.176871,-11.125 -0.32629,0 -4.814579,-0.017 -5.104379,0 z m 2.8125,7.15625 c 0.22947,0.087 0.44972,0.1731 0.6875,0.25 4.613818,0.319267 2.157989,4.286892 2.46875,0.71875 0.0823,0.027 0.17657,0.06675 0.25,0.09375 0.32223,0.1181 0.61239,0.2463 0.90625,0.375 2.354328,3.440315 3.872673,8.226384 2.5,1.53125 0.7404,0.6914 1.27617,1.5488 1.625,2.625 l -0.65625,10.25 c -0.28039,0.5902 -0.57553,1.1459 -0.9375,1.625 0.26312,0.01 0.50384,-0.01325 0.75,-0.03125 -0.10162,0.3038 -0.26326,0.75605 -0.625,1.34375 -0.53561,0.8701 -1.30716,1.9048 -2.25,2.875 -1.88568,1.9403 -4.38629,3.54465 -6.375,3.53125 -2.28418,-0.015 -4.3826,-1.20895 -6.125,-2.90625 -1.37647,-1.3409 -2.45883,-2.9664 -3.21875,-4.4375 0.2733,0.022 0.55149,0.03825 0.84375,0.03125 C 16.35807,32.4619 15.8885,31.5656 15.5,30.5625 l -0.5,-10 c 0.10541,-0.3065 0.23057,-0.5993 0.375,-0.875 2.370554,-3.600457 1.7914,0.627107 1.6875,-2.03125 6.227161,-3.540558 2.442036,0.09484 4.21875,-2.0625 -1.553464,-9.1731713 1.834018,3.647651 2.21875,0.46875 7.910372,-3.989251 2.414306,3.150302 3.5625,-0.75 z m -9.1875,8.625 c 0,0 -0.0986,0.4564 0.3125,1.0625 -0.38912,-0.1184 -0.75409,-0.24505 -0.875,-0.40625 0,0 0.0942,0.868 1.46875,1.25 0.40675,0.113 1.27133,0.22 1.96875,0.1875 0.64459,-0.03 0.6875,-0.40625 0.6875,-0.40625 10e-6,-10e-5 -1.64245,-0.9943 -1.78125,-1.5 0,0 -0.0854,0.41195 0.25,0.96875 -0.46646,-0.3262 -1.01638,-0.7181 -1.09375,-1 0,0 -0.0668,0.3939 0.25,0.9375 -0.48457,-0.332 -1.10474,-0.79225 -1.1875,-1.09375 z m 14.78125,0 c -0.0786,0.3015 -0.63379,0.76175 -1.09375,1.09375 0.30069,-0.5436 0.21875,-0.9375 0.21875,-0.9375 -0.0734,0.2819 -0.58849,0.70495 -1.03125,1.03125 0.31835,-0.5568 0.21874,-0.96875 0.21875,-0.96875 -0.13176,0.5057 -1.68751,1.46875 -1.6875,1.46875 0,0 0.0444,0.4074 0.65625,0.4375 0.662,0.032 1.48891,-0.10575 1.875,-0.21875 1.30474,-0.382 1.40626,-1.25 1.40625,-1.25 -0.11476,0.1612 -0.44314,0.28785 -0.8125,0.40625 0.39018,-0.6061 0.25,-1.0625 0.25,-1.0625 z m 0.46875,2.09375 c -0.0267,0 -0.0754,0.0275 -0.125,0.0625 -0.79328,0.5666 -0.0059,1.227633 -3.15625,0.34375 -2.182238,-0.612257 -2.5,2.25 -2.5,2.25 0.85135,0.1568 1.6043,0.11145 2.28125,-0.03125 -0.18965,-0.1231 -0.3125,-0.3222 -0.3125,-0.5625 0,-0.3766 0.31097,-0.6875 0.6875,-0.6875 0.37653,0 0.6875,0.3109 0.6875,0.6875 0,0.094 -0.0275,0.19915 -0.0625,0.28125 1.87462,-0.7804 2.77277,-2.36695 2.5,-2.34375 z m -15.40625,0.0625 c -0.27253,-0.023 0.72606,1.6719 2.75,2.3125 -0.0697,-0.1074 -0.125,-0.2389 -0.125,-0.375 0,-0.3765 0.31097,-0.65625 0.6875,-0.65625 0.37653,0 0.6875,0.27975 0.6875,0.65625 0,0.2563 -0.13294,0.47555 -0.34375,0.59375 0.51659,0.065 1.07327,0.0505 1.6875,-0.0625 0,0 -0.18352,-2.09375 -2.28125,-2.09375 -2.09773,0 -2.455828,1.348322 -3.190038,0.823922 -0.0459,-0.033 0.152298,-1.196922 0.127538,-1.198922 z M 25.25,31.5625 c -0.74333,0 -2.097794,1.242014 -2.226364,1.882614 0.39879,-0.2179 1.656654,-1.132614 2.226364,-1.132614 0.57143,0 1.984623,1.039783 2.383883,1.258883 C 27.509293,32.926283 25.99678,31.5625 25.25,31.5625 z m -4.53125,3.40625 1.21875,1.125 c 1.29839,1.2366 3.690828,0.209097 3.721288,0.208597 0.0304,7e-4 1.917812,1.028203 3.216212,-0.208597 l 2.450191,-0.619924 c 0,0 -2.824431,0.566474 -3.762691,0.713674 -1.33356,0.3224 -2.7521,0.4512 -4.3125,0 -0.93826,-0.1472 -2.53125,-1.21875 -2.53125,-1.21875 z"
       transform="translate(0,1002.3622)"
       id="path4978-8-7"
       inkscape:connector-curvature="0"
       sodipodi:nodetypes="ccccccccccsccccccccccccccccccccccccccccccccccccccccccccccccccccccccccccsccsssccccsssccsccscscscccccccc" />
  </g>
</svg>
