<?xml version="1.0" encoding="UTF-8" standalone="no"?>
<!-- Created with Inkscape (http://www.inkscape.org/) -->

<svg
   xmlns:dc="http://purl.org/dc/elements/1.1/"
   xmlns:cc="http://creativecommons.org/ns#"
   xmlns:rdf="http://www.w3.org/1999/02/22-rdf-syntax-ns#"
   xmlns:svg="http://www.w3.org/2000/svg"
   xmlns="http://www.w3.org/2000/svg"
   xmlns:xlink="http://www.w3.org/1999/xlink"
   xmlns:sodipodi="http://sodipodi.sourceforge.net/DTD/sodipodi-0.dtd"
   xmlns:inkscape="http://www.inkscape.org/namespaces/inkscape"
   id="svg2"
   sodipodi:version="0.32"
   inkscape:version="0.48.3.1 r9886"
   width="850"
   height="796"
   version="1.0"
   sodipodi:docname="zeimusu_girlface7_1.svg"
   inkscape:output_extension="org.inkscape.output.svg.inkscape"
   sodipodi:modified="true">
  <metadata
     id="metadata7">
    <rdf:RDF>
      <cc:Work
         rdf:about="">
        <dc:format>image/svg+xml</dc:format>
        <dc:type
           rdf:resource="http://purl.org/dc/dcmitype/StillImage" />
        <dc:title></dc:title>
      </cc:Work>
    </rdf:RDF>
  </metadata>
  <defs
     id="defs5">
    <linearGradient
       id="linearGradient2218">
      <stop
         style="stop-color:#913619;stop-opacity:1;"
         offset="0"
         id="stop2220" />
      <stop
         style="stop-color:#c24922;stop-opacity:1;"
         offset="1"
         id="stop2222" />
    </linearGradient>
    <linearGradient
       id="linearGradient2357">
      <stop
         style="stop-color:#8b8180;stop-opacity:1;"
         offset="0"
         id="stop2359" />
      <stop
         id="stop2365"
         offset="0.89473683"
         style="stop-color:#79706f;stop-opacity:1;" />
      <stop
         style="stop-color:#675f5e;stop-opacity:1;"
         offset="1"
         id="stop2361" />
    </linearGradient>
    <radialGradient
       r="51.015797"
       fy="362.0658"
       fx="-449.51654"
       cy="362.0658"
       cx="-449.51654"
       gradientTransform="matrix(1.264151,0,0,1.301886,780.983,-135.2919)"
       gradientUnits="userSpaceOnUse"
       id="radialGradient4607"
       xlink:href="#linearGradient3319"
       inkscape:collect="always" />
    <radialGradient
       r="51.015797"
       fy="362.0658"
       fx="-449.51654"
       cy="362.0658"
       cx="-449.51654"
       gradientTransform="matrix(1.264151,0,0,1.301886,1322.7932,460.63659)"
       gradientUnits="userSpaceOnUse"
       id="radialGradient4604"
       xlink:href="#linearGradient3319"
       inkscape:collect="always" />
    <linearGradient
       id="linearGradient3319">
      <stop
         id="stop3321"
         offset="0"
         style="stop-color:#882213;stop-opacity:0.23921569;" />
      <stop
         style="stop-color:#882213;stop-opacity:0.23921569;"
         offset="0.54385966"
         id="stop3327" />
      <stop
         id="stop3323"
         offset="1"
         style="stop-color:#882213;stop-opacity:0;" />
    </linearGradient>
    <radialGradient
       inkscape:collect="always"
       xlink:href="#linearGradient3319"
       id="radialGradient2317"
       gradientUnits="userSpaceOnUse"
       gradientTransform="matrix(1.264151,0,0,1.301886,1604.0583,454.69173)"
       cx="-449.51654"
       cy="362.0658"
       fx="-449.51654"
       fy="362.0658"
       r="51.015797" />
    <radialGradient
       inkscape:collect="always"
       xlink:href="#linearGradient3319"
       id="radialGradient2320"
       gradientUnits="userSpaceOnUse"
       gradientTransform="matrix(0.21045883,0,0,0.60000994,644.56279,21.422862)"
       cx="-449.51654"
       cy="362.0658"
       fx="-449.51654"
       fy="362.0658"
       r="51.015797" />
    <radialGradient
       inkscape:collect="always"
       xlink:href="#linearGradient3319"
       id="radialGradient2327"
       gradientUnits="userSpaceOnUse"
       gradientTransform="matrix(1.264151,0,0,1.301886,860.19377,-34.51225)"
       cx="-449.51654"
       cy="362.0658"
       fx="-449.51654"
       fy="362.0658"
       r="51.015797" />
    <radialGradient
       inkscape:collect="always"
       xlink:href="#linearGradient3319"
       id="radialGradient2330"
       gradientUnits="userSpaceOnUse"
       gradientTransform="matrix(1.264151,0,0,1.301886,318.38357,-630.44074)"
       cx="-449.51654"
       cy="362.0658"
       fx="-449.51654"
       fy="362.0658"
       r="51.015797" />
    <linearGradient
       inkscape:collect="always"
       xlink:href="#linearGradient2218"
       id="linearGradient2224"
       x1="217.47481"
       y1="291.37399"
       x2="251.25729"
       y2="238.43121"
       gradientUnits="userSpaceOnUse" />
    <radialGradient
       r="51.015797"
       fy="362.0658"
       fx="-449.51654"
       cy="362.0658"
       cx="-449.51654"
       gradientTransform="matrix(1.264151,0,0,1.301886,780.983,-135.2919)"
       gradientUnits="userSpaceOnUse"
       id="radialGradient2266"
       xlink:href="#linearGradient3319"
       inkscape:collect="always" />
    <radialGradient
       r="51.015797"
       fy="362.0658"
       fx="-449.51654"
       cy="362.0658"
       cx="-449.51654"
       gradientTransform="matrix(1.264151,0,0,1.301886,1011.998,-135.2919)"
       gradientUnits="userSpaceOnUse"
       id="radialGradient2264"
       xlink:href="#linearGradient3319"
       inkscape:collect="always" />
    <linearGradient
       id="linearGradient2256">
      <stop
         id="stop2258"
         offset="0"
         style="stop-color:#882213;stop-opacity:0.23921569;" />
      <stop
         style="stop-color:#882213;stop-opacity:0.23921569;"
         offset="0.54385966"
         id="stop2260" />
      <stop
         id="stop2262"
         offset="1"
         style="stop-color:#882213;stop-opacity:0;" />
    </linearGradient>
    <radialGradient
       inkscape:collect="always"
       xlink:href="#linearGradient3319"
       id="radialGradient2305"
       gradientUnits="userSpaceOnUse"
       gradientTransform="matrix(1.264151,0,0,1.301886,851.26944,-32.314134)"
       cx="-449.51654"
       cy="362.0658"
       fx="-449.51654"
       fy="362.0658"
       r="51.015797" />
    <radialGradient
       inkscape:collect="always"
       xlink:href="#linearGradient3319"
       id="radialGradient2309"
       gradientUnits="userSpaceOnUse"
       gradientTransform="matrix(1.264151,0,0,1.301886,1142.6434,-32.314138)"
       cx="-449.51654"
       cy="362.0658"
       fx="-449.51654"
       fy="362.0658"
       r="51.015797" />
  </defs>
  <sodipodi:namedview
     inkscape:window-height="606"
     inkscape:window-width="742"
     inkscape:pageshadow="2"
     inkscape:pageopacity="0.0"
     guidetolerance="10.0"
     gridtolerance="10.0"
     objecttolerance="10.0"
     borderopacity="1.0"
     bordercolor="#666666"
     pagecolor="#ffffff"
     id="base"
     inkscape:zoom="0.47361809"
     inkscape:cx="579.92637"
     inkscape:cy="398"
     inkscape:window-x="259"
     inkscape:window-y="84"
     inkscape:current-layer="svg2"
     showgrid="false"
     inkscape:window-maximized="0" />
  <path
     style="fill:#000000"
     d="M 393.38317,723.4417 C 378.13079,721.47848 351.91931,714.11083 342.16244,709.04432 C 341.2481,708.56953 335.93155,705.92377 330.3479,703.16487 C 324.76424,700.40597 318.27917,696.87773 315.93662,695.32435 C 313.59408,693.77096 310.38058,691.71078 308.79552,690.74618 C 295.10422,682.41423 268.88276,658.36498 258,644.15862 C 256.625,642.36369 254.6,639.87775 253.5,638.6343 C 251.12798,635.95294 249.96996,634.32389 242.03697,622.5087 C 238.71663,617.56348 236,613.18472 236,612.77812 C 236,612.37151 234.425,609.57671 232.5,606.56745 C 230.575,603.55819 229,600.81978 229,600.4821 C 229,600.14441 227.04205,595.96029 224.64901,591.18406 C 222.25597,586.40783 218.82487,578.45 217.02435,573.5 C 215.22384,568.55 213.40438,563.6 212.98112,562.5 C 206.4333,545.48313 199.68151,514.01928 198.23449,493.77962 L 197.5,483.50629 L 191.89549,482.00315 C 183.32541,479.70463 177.69458,474.50067 172.93286,464.47809 C 169.12711,456.46767 169,455.85905 169,445.64711 C 169,439.84296 169.51324,433.83543 170.14053,432.29705 C 170.76782,430.75867 171.89282,428.08199 172.64053,426.34887 C 173.38824,424.61575 174,422.69314 174,422.0764 C 174,420.1259 184.22903,411.10861 187.17583,410.46138 C 190.66372,409.69531 190.69877,409.00143 187.40499,405.92431 C 182.33838,401.19099 181.70351,398.68718 182.21345,385.44987 C 182.71944,372.31519 183.19549,370.86369 193.55898,350.85717 C 195.45154,347.20362 197.00655,343.37862 197.01455,342.35717 C 197.07641,334.46402 208.34373,315.42282 215.6098,310.93214 C 217.47441,309.77975 218.98292,308.53608 218.96205,308.16844 C 218.94118,307.8008 217.20103,306.30939 215.09506,304.8542 C 210.87559,301.93862 205,292.62421 205,288.85078 C 205,287.52761 204.29948,285.44488 203.4433,284.22251 C 202.07047,282.26252 201.0027,282 194.40346,282 C 188.89377,282 185.88646,281.47256 183,280 C 180.84382,278.9 178.22947,278 177.19032,278 C 176.15117,278 173.32075,276.65819 170.90048,275.0182 C 168.48022,273.37821 165.78965,272.02821 164.92144,272.0182 C 161.75567,271.9817 153.80453,265.60212 148.7155,259.01541 C 143.67231,252.48801 140.95837,248.3533 134.4274,237.2474 C 131.40513,232.10805 130,231.45823 130,235.19991 C 130,238.15118 125.29503,246.66751 119.80528,253.65309 C 113.19186,262.06851 97.979237,275.39129 90.778517,279.0739 C 82.751558,283.17907 77.205957,282.71685 66.020246,277.01033 C 61.212847,274.55778 51.422612,263.83509 48.826952,258.1795 C 47.736349,255.80322 45.75413,252.25293 44.422019,250.28995 C 41.455081,245.91792 41.323946,241.32137 43.960375,234.10841 C 46.159853,228.0909 46.795229,227.22249 55.915651,217.7685 L 62.409637,211.03701 L 59.837361,208.2685 C 58.422609,206.74583 56.016483,203.32633 54.490414,200.66962 C 51.854128,196.08015 51.743332,195.37681 52.268913,186.56733 C 52.724662,178.92832 53.351732,176.24619 55.829518,171.33772 C 60.354296,162.37419 64.876802,158.79561 77.800728,153.9523 L 81.101456,152.71533 L 78.655186,150.10767 C 77.309738,148.67345 74.48774,144.125 72.384081,140 C 68.588082,132.55654 68.559023,132.40953 68.529623,120.5 C 68.501441,109.08353 68.639755,108.25686 71.373984,103.5 C 75.421207,96.458865 84.519772,87.364438 91,83.882912 C 94.025,82.257719 98.005173,79.977867 99.844829,78.816574 C 102.93877,76.863505 104.96577,76.668513 126.8688,76.216932 C 149.58605,75.748565 150.718,75.815487 154.73414,77.864366 C 157.03654,79.038965 159.86782,80 161.02588,80 C 165.07511,80 187.52012,92.580342 197.08989,100.21375 C 206.93975,108.07057 211.24112,112.41554 222,125.37638 C 230.86816,136.05955 231.23262,136.56594 235.63137,144.31648 C 244.66822,160.23929 251.68801,176.90751 254.66031,189.5 C 258.34654,205.11712 258.84596,209.57955 258.29759,222 L 257.7457,234.5 L 260.85634,236.76773 C 262.56719,238.01498 264.66096,240.37748 265.50917,242.01773 C 266.35737,243.65798 267.61922,245 268.31327,245 C 269.00732,245 271.80827,242.7147 274.53759,239.92154 C 277.26692,237.12839 280.80824,234.15526 282.4072,233.31457 C 284.00617,232.47389 287.38117,229.8684 289.9072,227.52461 C 292.43324,225.18082 295.91396,222.5425 297.64213,221.66169 C 299.3703,220.78087 302.20253,218.26949 303.93597,216.08084 C 307.37147,211.74318 311.56962,208.96295 322.87484,203.53855 C 330.80107,199.73544 335.47053,199.15772 339.87481,201.43526 C 343.89915,203.51633 349.9707,210.60351 350.65336,214.01681 C 350.97658,215.6329 351.8618,217.47034 352.62051,218.10002 C 353.73098,219.02162 354,218.75439 354,216.72973 C 354,213.24143 363.78677,199.11003 368.56373,195.70074 C 373.98927,191.82856 381.63261,188.44152 387,187.53096 C 395.58353,186.0748 414.61415,184.86777 437,184.35968 C 460.25485,183.83187 464.95683,184.271 482,188.56239 C 485.575,189.46255 490.975,190.53581 494,190.9474 C 497.025,191.35899 502.44394,193.07626 506.04208,194.76356 C 509.64023,196.45085 514.36523,198.14102 516.54208,198.51949 C 524.14972,199.84217 538.3642,205.45051 547,210.53671 C 548.375,211.34654 554.225,214.26594 560,217.02426 C 576.88324,225.08822 586.18224,232.53001 597.76896,247.25 C 603.50719,254.53995 606,254.89861 606,248.43426 C 606,245.9231 605.52275,242.97677 604.93945,241.88687 C 604.35615,240.79696 603.46007,233.28743 602.94815,225.19903 C 601.9913,210.08036 602.32839,206.53475 606.34218,189.5 C 609.30592,176.9217 616.32784,160.24623 625.36863,144.31648 C 629.76738,136.56594 630.13184,136.05955 639,125.37638 C 649.75888,112.41554 654.06025,108.07057 663.91011,100.21375 C 673.47988,92.580342 695.92489,80 699.97412,80 C 701.13218,80 703.96346,79.038965 706.26586,77.864366 C 710.282,75.815487 711.41395,75.748565 734.1312,76.216932 C 756.03423,76.668513 758.06123,76.863505 761.15517,78.816574 C 762.99483,79.977867 766.975,82.257719 770,83.882912 C 776.48023,87.364438 785.57879,96.458865 789.62602,103.5 C 792.36024,108.25686 792.49856,109.08353 792.47038,120.5 C 792.44098,132.40953 792.41192,132.55654 788.61592,140 C 786.51226,144.125 783.69026,148.67345 782.34481,150.10767 L 779.89854,152.71533 L 783.19927,153.9523 C 796.1232,158.79561 800.6457,162.37419 805.17048,171.33772 C 807.64827,176.24619 808.27534,178.92832 808.73109,186.56733 C 809.25667,195.37681 809.14587,196.08015 806.50959,200.66962 C 804.98352,203.32633 802.57739,206.74583 801.16264,208.2685 L 798.59036,211.03701 L 805.08435,217.7685 C 814.20477,227.22249 814.84015,228.0909 817.03962,234.10841 C 819.67605,241.32137 819.54492,245.91792 816.57798,250.28995 C 815.24587,252.25293 813.26365,255.80322 812.17305,258.1795 C 809.57739,263.83509 799.78715,274.55778 794.97975,277.01033 C 789.17193,279.97326 782.8495,281.96934 779.22148,281.98545 C 768.5993,282.0326 742.04213,258.85709 733.57805,242.15403 C 732.16012,239.35588 731,236.22653 731,235.19991 C 731,231.45823 729.59487,232.10805 726.5726,237.2474 C 720.04163,248.3533 717.32769,252.48801 712.2845,259.01541 C 707.19547,265.60212 699.24433,271.9817 696.07856,272.0182 C 695.21035,272.02821 692.51978,273.37821 690.09952,275.0182 C 687.67925,276.65819 684.84883,278 683.80968,278 C 682.77053,278 680.15618,278.9 678,280 C 675.28846,281.38333 672.10623,282 667.67941,282 C 664.15926,282 659.30384,282.26969 656.88957,282.59932 L 652.5,283.19863 L 652.81612,292.49298 C 653.11998,301.42652 652.99573,302.0584 649.6156,308.77044 C 647.37561,313.21848 644.62888,316.91789 642.04948,318.96081 C 637.60699,322.47933 637.338,323.57886 639.47116,329.5 C 641.23111,334.38517 641.38565,343.17642 639.85738,351.47061 L 638.71477,357.67182 L 643.35738,364.45218 C 645.91082,368.18137 648.04264,371.74272 648.09476,372.36627 C 648.14687,372.98982 648.5863,378.9 649.07127,385.5 C 649.55623,392.1 650.22357,399.75 650.55425,402.5 C 651.0713,406.79995 650.79457,408.03125 648.57774,411.29441 C 647.15998,413.38133 646,415.22857 646,415.39937 C 646,415.57018 649.20504,415.97863 653.12232,416.30704 C 661.61051,417.01866 669.80532,421.33314 673.68104,427.13099 C 676.01871,430.62802 676.09319,431.27369 675.69963,444.63099 C 675.28844,458.58717 673.03729,470.36861 670.25,473.15183 C 669.5625,473.83832 668.98382,475.0975 668.96404,475.95 C 668.86507,480.21554 658.24801,488.35349 650.52805,490.08114 L 645.2038,491.27265 L 644.53363,497.88633 C 644.16504,501.52385 643.45638,505.85 642.95883,507.5 C 642.46129,509.15 641.34079,515.225 640.46883,521 C 638.93555,531.15503 633.88851,552.41234 632.0402,556.5 C 631.54281,557.6 629.68696,562.76726 627.91608,567.98279 C 621.40567,587.15705 604.07582,619.84639 593.71307,632.5 C 592.3618,634.15 589.88145,637.525 588.20119,640 C 585.1357,644.51544 581.74603,648.35471 570.98476,659.5 C 552.91116,678.21855 527.68826,696.73728 508.5,705.37649 C 505.2,706.86226 501.68316,708.53251 500.6848,709.08814 C 491.71149,714.08221 464.11803,721.60786 447.66714,723.54782 C 433.0032,725.27705 407.25102,725.22671 393.38317,723.4417 z "
     id="path2229" />
  <path
     style="fill:#ffffff;fill-opacity:1.0"
     d="M 448.5,718.99217 C 475.65966,714.87599 490.66196,709.79492 518,695.45349 C 528.84613,689.76365 547.09773,676.56434 556.65323,667.5 C 559.55224,664.75 562.50373,661.99554 563.21208,661.37897 C 565.79092,659.13429 577.81953,646.14618 578.64826,644.71148 C 579.11672,643.90047 581.20209,641.27112 583.28242,638.86846 C 588.76187,632.54004 596.05233,621.94572 602.80413,610.5 C 621.86125,578.19419 633.76094,542.99163 638.46682,505 C 640.86607,485.63029 640.16448,487.30111 646.24534,486.47565 C 649.1354,486.08333 653.1355,484.93319 655.13445,483.91979 C 659.51952,481.69671 665,476.40158 665,474.38789 C 665,473.58585 665.6342,471.93297 666.40934,470.71482 C 670.78037,463.84564 673.56671,437.05549 670.55865,430.8199 C 667.174,423.80363 655.95091,419.08558 645.83703,420.42723 C 642.37528,420.88645 640.14144,420.64512 638.21946,419.60428 C 636.72376,418.79429 634.33562,417.88674 632.91248,417.58751 C 628.92684,416.74949 625.17834,413.28545 622.46686,407.93459 C 620.30445,403.66728 620,401.75473 620,392.43761 C 620,383.295 619.71081,381.40262 617.93191,378.90437 C 616.57886,377.0042 614.98596,376 613.32487,376 C 609.23171,376 598.00637,370.08386 592.65063,365.10396 C 589.92734,362.57178 586.893,358.7 585.90764,356.5 C 584.92228,354.3 582.24359,350.7 579.95498,348.5 C 577.66637,346.3 573.19812,341.125 570.02552,337 C 561.3719,325.74858 561.44829,325.79697 554.42336,327.11604 C 546.21792,328.65678 533.88886,327.58265 525.85473,324.6271 C 516.32628,321.12182 515.8719,320.80031 509.76606,313.24323 C 502.45881,304.19919 499,297.24946 499,291.61117 C 499,287.61136 498.56822,286.78626 494.77682,283.54096 C 489.61379,279.1216 486.93204,278.36374 482.73059,280.13672 C 477.8332,282.20337 457.43938,281.93837 453.37365,279.75524 C 448.63476,277.21066 434.42428,263.43853 433.00695,260.01679 C 431.26443,255.80996 428.09151,256.06049 417.95136,261.20557 C 410.13896,265.16955 409.16987,265.41192 401.08141,265.42464 C 394.9256,265.43433 391.61536,264.96255 389.37027,263.75559 C 387.64892,262.83018 384.49892,261.46899 382.37027,260.73071 C 377.28109,258.96564 366.73891,250.86907 364.17508,246.75651 C 363.0585,244.96543 360.76232,241.51978 359.07247,239.09952 C 357.38261,236.67925 356,233.86675 356,232.84952 C 356,231.83228 355.55,231 355,231 C 353.64501,231 353.73042,231.57801 355.62748,235.24652 C 356.90496,237.71688 357.14721,240.28347 356.75395,247.18076 C 356.30619,255.0338 355.86747,256.61488 352.62647,262.05557 C 350.63191,265.40384 349,268.47576 349,268.88206 C 349,269.28835 347.86963,272.50512 346.48807,276.03044 C 342.9297,285.11029 338.42794,289.3518 326.12382,295.21736 C 310.71293,302.56398 304.86924,304.30794 293.5374,304.9423 L 283.5748,305.5 L 282.88768,308.8772 C 282.50977,310.73465 281.33781,313.43465 280.28333,314.8772 C 278.31697,317.56719 265.71487,324.91169 262.96832,324.96839 C 262.01004,324.98816 260.92592,326.77823 260.07243,329.75 C 257.77065,337.76457 253.066,347.3293 249.70108,350.83532 C 245.02413,355.7084 241.88506,357 234.71864,357 C 229.08477,357 228.21295,357.26334 227.2699,359.25 C 225.10809,363.80413 224.14562,367.65315 223.57455,374.02812 C 222.60154,384.89008 219.113,392.29805 210.4021,402 C 209.16755,403.375 207.75685,406.075 207.26722,408 C 206.38271,411.47741 206.33261,411.50442 199.50597,412.18503 C 195.02544,412.63174 190.69802,413.85353 187.06749,415.69689 C 182.15195,418.19269 181.11675,419.28346 178.22715,425.01185 C 167.13693,446.99728 176.33541,475.57382 195.42392,478.43632 C 200.9603,479.26655 201.97029,480.82054 202.08438,488.68426 C 202.18137,495.36847 202.86067,500.24269 206.30938,519 C 210.3426,540.93646 212.99293,550.19614 222.33785,575 C 224.43552,580.56777 235.64214,603.3553 239.30612,609.50327 C 246.04849,620.8166 248.78978,625.08919 251.49443,628.5 C 253.23896,630.7 255.09071,633.27668 255.60944,634.22595 C 256.9989,636.76865 272.99607,654.87776 280.08028,661.92742 C 303.01465,684.74995 336.03848,704.32101 366.5,713.14276 C 377.91188,716.44767 380.91074,717.09692 393.5,718.98824 C 410.18321,721.49461 431.97798,721.49617 448.5,718.99217 z "
     id="path2227" />
  <path
     style="fill:#000000"
     d="M 409,713.5 C 409,712.675 409.675,712 410.5,712 C 411.325,712 412,712.675 412,713.5 C 412,714.325 411.325,715 410.5,715 C 409.675,715 409,714.325 409,713.5 z "
     id="path2225" />
  <path
     style="fill:#000000"
     d="M 420,713.5 C 420,712.675 420.675,712 421.5,712 C 422.325,712 423,712.675 423,713.5 C 423,714.325 422.325,715 421.5,715 C 420.675,715 420,714.325 420,713.5 z "
     id="path2223" />
  <path
     style="fill:#000000"
     d="M 381.07128,712.25714 C 370.99707,710.62963 363.73488,707.57743 363.1887,704.74134 C 362.73046,702.36188 364.84386,702.54402 370.10106,705.33708 C 374.29417,707.56481 391.78607,711 398.93652,711 C 400.99295,711 402,711.49309 402,712.5 C 402,714.45173 394.08728,714.35991 381.07128,712.25714 z "
     id="path2221" />
  <path
     style="fill:#000000"
     d="M 430,712.5 C 430,711.675 430.675,711 431.5,711 C 432.325,711 433,711.675 433,712.5 C 433,713.325 432.325,714 431.5,714 C 430.675,714 430,713.325 430,712.5 z "
     id="path2219" />
  <path
     style="fill:#000000"
     d="M 354,700.5 C 354,699.675 354.675,699 355.5,699 C 356.325,699 357,699.675 357,700.5 C 357,701.325 356.325,702 355.5,702 C 354.675,702 354,701.325 354,700.5 z "
     id="path2217" />
  <path
     style="fill:#000000"
     d="M 341,695.5 C 341,694.675 341.675,694 342.5,694 C 343.325,694 344,694.675 344,695.5 C 344,696.325 343.325,697 342.5,697 C 341.675,697 341,696.325 341,695.5 z "
     id="path2215" />
  <path
     style="fill:#000000"
     d="m 407.5,662.99976 c -11.12688,-0.86965 -15.57047,-1.33099 -18.70783,-1.94228 -4.7546,-0.92638 -10.18655,-1.6888 -12.03213,-1.6888 -0.87888,0 -2.87193,-0.27779 -4.429,-0.61731 -1.55707,-0.33953 -7.6022,-1.66718 -13.43362,-2.95034 -5.83142,-1.28317 -11.33916,-2.33303 -12.23941,-2.33303 -0.90026,0 -4.2291,-1.01374 -7.39742,-2.25276 -3.16833,-1.23903 -7.73282,-3.02625 -10.14332,-3.97162 -2.4105,-0.94536 -6.07783,-2.94437 -8.14962,-4.44223 -2.07179,-1.49787 -4.93706,-3.24172 -6.36727,-3.87523 -1.43021,-0.63351 -2.60779,-1.3484 -2.61685,-1.58864 -0.009,-0.24025 -2.48405,-2.65246 -5.5,-5.36048 C 303.46759,629.26903 301,626.60234 301,626.05107 c 0,-0.55127 -1.125,-1.69443 -2.5,-2.54037 -1.375,-0.84593 -2.5,-2.0162 -2.5,-2.60059 0,-0.58439 -0.7201,-1.56137 -1.60022,-2.17106 -0.88012,-0.6097 -1.96624,-1.77697 -2.41361,-2.59395 -0.44736,-0.81698 -1.80097,-2.60882 -3.00802,-3.98186 -1.20705,-1.37304 -2.65046,-3.31346 -3.20757,-4.31203 -0.55712,-0.99858 -1.66756,-2.73474 -2.46764,-3.85814 -1.41288,-1.98383 -2.44432,-3.9499 -4.28621,-8.17017 -0.4903,-1.1234 -1.44609,-2.96169 -2.12397,-4.08509 -1.74786,-2.89658 -2.36541,-20.7651 -0.76458,-22.12279 2.22524,-1.88726 0.0562,-1.58848 -4.80832,0.66234 -4.74191,2.19408 -6.64523,2.83711 -13.78648,4.6577 -3.97438,1.01323 -6.09533,1.15133 -7.03891,0.45834 -1.39154,-1.02198 0.91132,-2.2877 6.30767,-3.4669 C 262.3138,570.7221 279,563.99177 279,562.97306 c 0,-0.25412 1.1817,-1.02188 2.62599,-1.70614 2.67015,-1.26503 4.45466,-2.50434 6.33398,-4.39884 0.63699,-0.64214 1.72886,-0.99557 2.79294,-0.90408 2.33045,0.20038 2.90381,2.73458 0.79816,3.52778 -0.85309,0.32136 -1.55107,0.83006 -1.55107,1.13044 0,0.30038 -1.16776,1.04133 -2.59501,1.64655 -3.94716,1.67375 -5.40499,3.30392 -5.40499,6.04394 0,1.37071 -0.45,2.61843 -1,2.77272 -1.25715,0.35266 -1.36324,17.31962 -0.11049,17.67104 0.48923,0.13725 1.14549,0.91525 1.45835,1.72891 0.57886,1.50544 1.82247,4.38404 3.48246,8.06091 0.50718,1.1234 1.65284,2.9363 2.54591,4.02868 0.89308,1.09237 1.62377,2.49142 1.62377,3.109 0,0.61758 1.575,2.77253 3.5,4.78879 1.925,2.01625 3.5,4.11304 3.5,4.65953 0,0.54649 0.9,1.51295 2,2.14769 1.1,0.63474 2,1.63615 2,2.22534 0,0.58919 1.125,1.82273 2.5,2.74119 1.375,0.91846 2.5,2.10568 2.5,2.63827 0,0.53259 2.475,3.16457 5.5,5.84885 3.025,2.68428 5.5,5.00109 5.5,5.14845 0,0.14737 1.2375,0.86051 2.75,1.58475 1.5125,0.72424 4.26959,2.47583 6.12687,3.89241 1.85728,1.41659 5.11825,3.23973 7.24661,4.05142 2.12835,0.8117 6.35102,2.44602 9.38371,3.63183 3.30981,1.29417 6.48552,2.15602 7.94438,2.15602 1.33672,0 2.69319,0.193 3.01438,0.42889 0.68022,0.49957 17.17752,4.10317 18.88215,4.12453 0.63354,0.008 2.02541,0.31432 3.09303,0.68085 1.06762,0.36652 2.83567,0.66641 3.929,0.66641 2.48877,0 8.24592,0.81437 11.94519,1.68968 2.72098,0.64384 6.30662,0.98284 21.18468,2.00286 8.51614,0.58387 36.10723,0.20341 41.29669,-0.56944 2.03682,-0.30334 5.72831,-0.94427 8.20331,-1.42429 7.50822,-1.45621 8.3193,-1.60041 13.5,-2.4002 2.75,-0.42454 6.9076,-1.15529 9.2391,-1.62389 2.33151,-0.46861 4.61557,-0.85201 5.07569,-0.85201 0.46012,0 1.92752,-0.53051 3.2609,-1.17892 1.33337,-0.6484 4.09802,-1.5685 6.14366,-2.04467 3.99954,-0.93097 4.79591,-1.22037 14.96558,-5.43837 7.20956,-2.99027 16.34586,-8.15936 19.58837,-11.08262 1.10764,-0.99858 2.96177,-2.2047 4.12029,-2.68027 1.15853,-0.47557 2.10641,-1.07715 2.10641,-1.33686 0,-0.2597 1.06082,-0.994 2.35739,-1.63177 1.29656,-0.63777 3.2432,-1.9766 4.32586,-2.97517 6.41096,-5.91307 10.89084,-9.70714 12.96092,-10.97676 1.2957,-0.79468 2.35583,-1.74922 2.35583,-2.12119 0,-0.37197 1.04731,-1.25368 2.32735,-1.95935 2.834,-1.56237 10.2601,-11.19625 12.22677,-15.86182 0.78795,-1.86926 1.9126,-3.80573 2.49922,-4.30325 1.85106,-1.56992 4.51071,-9.585 5.78374,-17.42985 0.36461,-2.2468 1.0535,-4.35989 1.53087,-4.69574 0.50719,-0.35684 0.43641,-1.01716 -0.17028,-1.58865 C 582.77677,563.39422 580,560.19809 580,559.48296 c 0,-0.45439 -0.45,-0.9524 -1,-1.10669 -1.54858,-0.43441 -1.17983,-2.03971 0.53725,-2.33878 1.93388,-0.33684 5.46275,1.07081 5.46275,2.17907 0,1.33167 3.34761,4.47175 4.76728,4.47175 0.71252,0 1.54717,0.35744 1.85478,0.79432 1.81892,2.58328 5.69272,5.10636 7.84003,5.10636 0.6124,0 2.63705,0.57734 4.49923,1.28297 2.32879,0.88246 3.18529,1.5201 2.74361,2.04254 -0.87984,1.04071 -5.00357,0.95587 -7.20493,-0.14822 -0.99549,-0.49929 -2.2673,-0.9078 -2.82625,-0.9078 -0.55895,0 -1.84983,-0.34241 -2.86864,-0.7609 -2.78408,-1.14362 -3.5655,-0.36627 -4.18695,4.16514 -1.08709,7.92663 -3.39632,14.73281 -5.92903,17.47509 -0.80698,0.87376 -1.78915,2.67672 -2.18261,4.00658 -1.05853,3.57774 -9.09902,14.02545 -11.99694,15.58866 -1.38027,0.74456 -2.50958,1.71903 -2.50958,2.1655 0,0.44647 -1.0037,1.39093 -2.23044,2.09881 -1.22674,0.70788 -3.25962,2.21627 -4.5175,3.35198 -1.25789,1.13571 -2.93494,2.57556 -3.7268,3.19967 -0.79185,0.62411 -2.58274,2.33267 -3.97976,3.7968 -1.39702,1.46413 -3.77876,3.33666 -5.29277,4.16116 -4.7901,2.60864 -9.25273,5.50347 -9.25273,6.00209 0,0.70241 -9.48922,6.16947 -17,9.79427 -6.07751,2.93309 -9.4907,4.18982 -17.46327,6.42993 -1.77698,0.49928 -4.76482,1.52056 -6.63965,2.26949 -3.20689,1.28104 -7.55545,2.17226 -24.39708,5.00006 -3.85,0.64643 -7.675,1.37014 -8.5,1.60824 -0.825,0.23809 -1.95,0.50276 -2.5,0.58814 -0.55,0.0854 -2.575,0.40367 -4.5,0.70728 -4.28343,0.6756 -42.31783,1.05463 -49.5,0.49329 z"
     id="path2213"
     inkscape:connector-curvature="0" />
  <path
     style="fill:#000000"
     d="M 641.75,471.91667 C 640.7875,470.8625 640,469.55 640,469 C 640,467.4691 643.66865,467.81151 645.35714,469.5 C 647.04289,471.18574 651,471.53638 651,470 C 651,469.45 651.5719,469 652.27089,469 C 654.46529,469 661,454.43111 661,449.53878 C 661,448.20737 661.44552,446.84269 661.99004,446.50615 C 662.64069,446.10403 662.63395,445.48388 661.9704,444.69714 C 661.41507,444.03871 659.95705,442.28689 658.73035,440.80421 C 656.75971,438.42232 656.00511,438.17566 652.25,438.68588 C 649.9125,439.00348 648,439.65409 648,440.13167 C 648,440.60925 646.875,441 645.5,441 C 644.125,441 643,440.51786 643,439.92857 C 643,437.4982 646.20992,435.99445 652.68182,435.39295 C 659.32296,434.77573 659.59827,434.84102 661.51826,437.48875 C 662.60822,438.99182 664.0625,440.81461 664.75,441.53938 C 666.74025,443.63753 666.60629,444.6357 662.54077,458 C 660.34002,465.23438 656.81753,472 655.25172,472 C 654.56327,472 654,472.45 654,473 C 654,473.55026 651.63889,473.96252 648.75,473.91667 C 644.92647,473.85598 643.02451,473.31256 641.75,471.91667 z "
     id="path2211" />
  <path
     style="fill:#000000"
     d="M 196,467.10841 C 196,466.61803 194.7625,465.90652 193.25,465.52728 C 190.72939,464.89526 187,461.89625 187,460.50132 C 187,459.7205 182.73265,453.66864 181.60637,452.85222 C 181.11488,452.49594 180.48861,448.71184 180.21466,444.44311 C 179.65835,435.77462 180.95222,432.0866 185.80319,428.51373 C 189.10181,426.08422 199.62326,425.79406 201.07832,428.09248 C 202.55362,430.42288 202.1184,432 200,432 C 198.9,432 198,431.55 198,431 C 198,430.45 196.28543,430 194.18984,430 C 191.26904,430 189.63178,430.7312 187.17562,433.13256 C 185.41339,434.85547 183.69885,437.35171 183.36552,438.67977 C 182.69767,441.3407 183.68554,449.13214 184.797,449.97003 C 185.80012,450.72625 190,456.80554 190,457.50132 C 190,459.93241 196.74926,463.6379 200.25,463.12879 C 201.52765,462.94298 202,463.56604 202,465.43714 C 202,467.6181 201.55295,468 199,468 C 197.35,468 196,467.59878 196,467.10841 z "
     id="path2209" />
  <path
     style="fill:#000000"
     d="M 607.0156,382.94261 C 605.09918,381.87417 602.28668,381 600.7656,381 C 598.97396,381 598,380.47175 598,379.5 C 598,378.41064 599.1221,378 602.09887,378 C 607.39184,378 613,380.6309 613,383.11394 C 613,385.4694 611.46924,385.42558 607.0156,382.94261 z "
     id="path2207" />
  <path
     style="fill:#000000"
     d="M 589,379.5 C 589,378.675 589.675,378 590.5,378 C 591.325,378 592,378.675 592,379.5 C 592,380.325 591.325,381 590.5,381 C 589.675,381 589,380.325 589,379.5 z "
     id="path2205" />
  <path
     style="fill:#000000"
     d="m 509.84218,436.89362 c -4.04267,-1.75807 -6,-5.08165 -6,-10.18808 0,-3.99157 0.5012,-5.37349 2.77273,-7.64501 2.28412,-2.28413 3.6458,-2.77273 7.72727,-2.77273 4.08147,0 5.44315,0.4886 7.72727,2.77273 2.28413,2.28412 2.77273,3.6458 2.77273,7.72727 0,4.00107 -0.49986,5.45441 -2.59742,7.55196 -2.80365,2.80366 -8.92821,4.06478 -12.40258,2.55386 z"
     id="path2203"
     inkscape:connector-curvature="0" />
  <path
     style="fill:#000000"
     d="m 348.15782,436.45065 c -4.04267,-1.75807 -6,-5.08165 -6,-10.18808 0,-3.99157 0.5012,-5.37349 2.77273,-7.64501 2.28412,-2.28413 3.6458,-2.77273 7.72727,-2.77273 4.08147,0 5.44315,0.4886 7.72727,2.77273 2.28413,2.28412 2.77273,3.6458 2.77273,7.72727 0,4.00107 -0.49986,5.45441 -2.59742,7.55196 -2.80365,2.80366 -8.92821,4.06478 -12.40258,2.55386 z"
     id="path2201"
     inkscape:connector-curvature="0" />
  <path
     style="fill:#000000"
     d="m 547.57137,417.61699 c -0.67606,-0.67606 -1.22919,-1.73 -1.22919,-2.3421 0,-0.6121 -1.365,-2.42066 -3.03334,-4.01903 -1.66834,-1.59837 -4.20199,-4.94506 -5.63034,-7.43709 -1.42835,-2.49203 -3.94787,-5.96381 -5.59894,-7.71506 -3.03851,-3.22287 -3.21029,-6.31591 -0.35077,-6.31591 2.94274,0 20.83341,23.24603 20.38714,26.48978 -0.32327,2.34976 -2.80328,3.08069 -4.54456,1.33941 z"
     id="path2199"
     inkscape:connector-curvature="0" />
  <path
     style="fill:#000000"
     d="M 539,335 C 539,334.45 537.48125,334 535.625,334 C 530.10247,334 526,332.85534 526,331.31445 C 526,330.13656 527.3013,330.00087 533.25,330.55845 C 537.2375,330.93221 540.9275,331.63446 541.45,332.11901 C 541.9725,332.60355 545.46,333 549.2,333 C 554.57778,333 556,333.31373 556,334.5 C 556,335.71569 554.38889,336 547.5,336 C 542.5,336 539,335.58824 539,335 z "
     id="path2197" />
  <path
     style="fill:#000000"
     d="m 306.45851,415.94602 c -0.68641,-1.78875 3.78291,-7.97824 6.93294,-9.60132 1.21514,-0.62612 3.10935,-1.93477 4.20935,-2.90811 1.1,-0.97335 3.57509,-2.60461 5.5002,-3.62504 1.92512,-1.02043 5.18302,-3.14273 7.2398,-4.71622 3.97928,-3.04428 6.76,-2.95756 6.76,0.21083 0,2.24064 -4.38475,5.79511 -11.75,9.52504 -2.8875,1.4623 -5.25,3.11079 -5.25,3.66331 0,0.55253 -1.05063,1.4833 -2.33473,2.06837 -1.2841,0.58508 -3.10954,2.37543 -4.05653,3.97856 -1.89426,3.20671 -6.2367,4.04788 -7.25103,1.40458 z"
     id="path2195"
     inkscape:connector-curvature="0" />
  <path
     style="fill:#000000"
     d="M 517,328.5 C 517,327.675 517.675,327 518.5,327 C 519.325,327 520,327.675 520,328.5 C 520,329.325 519.325,330 518.5,330 C 517.675,330 517,329.325 517,328.5 z "
     id="path2193" />
  <path
     style="fill:#000000"
     d="M 288,314.76501 C 288,313.59023 289.73983,313.07194 295.49333,312.53279 C 299.61466,312.14659 303.24121,311.41872 303.55234,310.91531 C 304.41562,309.51849 310.00119,309.80879 309.9922,311.25 C 309.97897,313.37 304.92703,314.99394 296.27661,315.65886 C 289.23687,316.19998 288,316.0664 288,314.76501 z "
     id="path2191" />
  <path
     style="fill:#000000"
     d="M 319,307.5 C 319,306.675 319.675,306 320.5,306 C 321.325,306 322,306.675 322,307.5 C 322,308.325 321.325,309 320.5,309 C 319.675,309 319,308.325 319,307.5 z "
     id="path2189" />
  <path
     style="fill:#000000"
     d="M 475,286.5 C 475,285.675 475.675,285 476.5,285 C 477.325,285 478,285.675 478,286.5 C 478,287.325 477.325,288 476.5,288 C 475.675,288 475,287.325 475,286.5 z "
     id="path2187" />
  <path
     style="fill:#000000"
     d="M 463,284.5 C 463,283.675 463.675,283 464.5,283 C 465.325,283 466,283.675 466,284.5 C 466,285.325 465.325,286 464.5,286 C 463.675,286 463,285.325 463,284.5 z "
     id="path2185" />
  <path
     style="fill:#000000"
     d="M 443.0427,282.90194 C 438.86273,280.66166 432,273.57441 432,271.49798 C 432,270.67409 431.55,270 431,270 C 430.45,270 430,269.325 430,268.5 C 430,267.56667 430.94444,267 432.5,267 C 434.05342,267 435,267.56686 435,268.49712 C 435,272.88754 447.36043,282 453.31572,282 C 455.03508,282 456,282.53921 456,283.5 C 456,285.65951 447.45165,285.26496 443.0427,282.90194 z "
     id="path2183" />
  <path
     style="fill:#000000"
     d="M 393,246.5 C 393,245.675 393.675,245 394.5,245 C 395.325,245 396,245.675 396,246.5 C 396,247.325 395.325,248 394.5,248 C 393.675,248 393,247.325 393,246.5 z "
     id="path2179" />
  <path
     style="fill:#000000"
     d="M 380.25,245.64009 C 379.0125,245.0272 378,244.1916 378,243.7832 C 378,243.37479 376.2,242.12236 374,241 C 371.8,239.87764 370,238.58735 370,238.13269 C 370,237.67802 369.1,236.26831 368,235 C 365.60815,232.24217 365.28051,227 367.5,227 C 368.325,227 369,227.60615 369,228.34699 C 369,229.08783 369.9,230.73169 371,232 C 372.1,233.26831 373,234.67802 373,235.13269 C 373,235.58735 374.8,236.87764 377,238 C 379.2,239.12236 381,240.37479 381,240.7832 C 381,241.1916 382.00987,241.96995 383.24416,242.51287 C 386.08524,243.76256 386.89827,247.05061 384.32332,246.87722 C 383.3205,246.80968 381.4875,246.25298 380.25,245.64009 z "
     id="path2177" />
  <path
     style="fill:#000000"
     d="M 325,274.03518 C 325,272.95453 325.9356,271.56965 327.07911,270.95766 C 335.4903,266.45613 341.126,258.33364 342.54283,248.67047 C 343.16468,244.42928 345.11734,241.78401 346.56073,243.2274 C 347.30913,243.9758 344.16752,257.78453 342.56534,260.78888 C 339.74866,266.07063 329.03686,276 326.15561,276 C 325.52002,276 325,275.11583 325,274.03518 z "
     id="path2173" />
  <path
     style="fill:#000000"
     d="M 320,213.5 C 320,212.675 320.675,212 321.5,212 C 322.325,212 323,212.675 323,213.5 C 323,214.325 322.325,215 321.5,215 C 320.675,215 320,214.325 320,213.5 z "
     id="path2171" />
  <path
     style="fill:url(#radialGradient2327);fill-opacity:1;fill-rule:evenodd;stroke:none;stroke-width:1;stroke-linecap:butt;stroke-linejoin:miter;stroke-miterlimit:4;stroke-dasharray:none;stroke-opacity:1"
     d="M 819.02814,932.00516 C 820.05505,973.79236 778.79827,1006.4921 741.54441,997.07181 C 706.28256,991.02357 680.74642,948.91605 692.94578,912.26185 C 704.38094,871.22346 754.50547,852.74449 787.96957,875.20815 C 806.65355,886.67268 819.24599,908.7982 819.02814,932.00516 z "
     id="path3329"
     transform="translate(-462.59943,-495.14884)" />
  <path
     style="fill:url(#radialGradient2320);fill-opacity:1;fill-rule:evenodd;stroke:none"
     d="m 637.70943,466.86897 c 0.17096,19.25878 -6.69755,34.32939 -12.89967,29.98777 -5.87047,-2.78751 -10.12179,-22.19392 -8.09081,-39.08701 1.90375,-18.91367 10.24861,-27.43021 15.81979,-17.07722 3.11054,5.28375 5.20697,15.4809 5.17069,26.17646 z"
     id="path2315"
     inkscape:connector-curvature="0" />
</svg>
