<?xml version="1.0" encoding="UTF-8" standalone="no"?>
<!-- Created with Inkscape (http://www.inkscape.org/) -->

<svg
   xmlns:dc="http://purl.org/dc/elements/1.1/"
   xmlns:cc="http://creativecommons.org/ns#"
   xmlns:rdf="http://www.w3.org/1999/02/22-rdf-syntax-ns#"
   xmlns:svg="http://www.w3.org/2000/svg"
   xmlns="http://www.w3.org/2000/svg"
   xmlns:sodipodi="http://sodipodi.sourceforge.net/DTD/sodipodi-0.dtd"
   xmlns:inkscape="http://www.inkscape.org/namespaces/inkscape"
   version="1.0"
   width="476.823"
   height="485.74701"
   viewBox="0 0 476.823 485.747"
   id="Layer_1"
   xml:space="preserve"
   inkscape:version="0.48.3.1 r9886"
   sodipodi:docname="Comentarista1.svg"
   inkscape:export-filename="/home/jmerelo/txt/ocio/bolaextra/Comentarista1.png"
   inkscape:export-xdpi="12.08"
   inkscape:export-ydpi="12.08"><sodipodi:namedview
   pagecolor="#ffffff"
   bordercolor="#666666"
   borderopacity="1"
   objecttolerance="10"
   gridtolerance="10"
   guidetolerance="10"
   inkscape:pageopacity="0"
   inkscape:pageshadow="2"
   inkscape:window-width="1215"
   inkscape:window-height="776"
   id="namedview3260"
   showgrid="false"
   inkscape:zoom="1.2619738"
   inkscape:cx="238.4115"
   inkscape:cy="242.8735"
   inkscape:window-x="65"
   inkscape:window-y="24"
   inkscape:window-maximized="1"
   inkscape:current-layer="Layer_1" /><defs
   id="defs76" />

<metadata
   id="metadata3223">
<rdf:RDF>
      <cc:Work
   rdf:about="">
         <dc:title></dc:title>
         <dc:description>Man Face Cartoon Outline</dc:description>
         <dc:subject>
          <rdf:Bag>
            <rdf:li>people</rdf:li>
	    <rdf:li>man</rdf:li>
	    <rdf:li>cartoon</rdf:li>
          </rdf:Bag>
         </dc:subject>
         <dc:publisher><cc:Agent
     rdf:about="http://www.openclipart.org/"><dc:title>Open Clip Art Project</dc:title></cc:Agent></dc:publisher>
         <dc:creator><cc:Agent
     rdf:about=""><dc:title>worldlabel.com - SVG by Gerald G.</dc:title></cc:Agent></dc:creator>
         <dc:rights><cc:Agent
     rdf:about="http://web.resource.org/cc/PublicDomain"><dc:title>Public Domain</dc:title></cc:Agent></dc:rights>
         <dc:date>2006/10/02</dc:date>
         <dc:format>image/svg+xml</dc:format>
         <dc:type
   rdf:resource="http://purl.org/dc/dcmitype/StillImage">http://purl.org/dc/dcmitype/StillImage</dc:type>
         <cc:license
   rdf:resource="http://web.resource.org/cc/PublicDomain" />
      </cc:Work>
      <cc:License
   rdf:about="http://web.resource.org/cc/PublicDomain">
         <cc:permits
   rdf:resource="http://web.resource.org/cc/Reproduction" />
         <cc:permits
   rdf:resource="http://web.resource.org/cc/Distribution" />
         <cc:permits
   rdf:resource="http://web.resource.org/cc/DerivativeWorks" />
      </cc:License>
   </rdf:RDF>
</metadata>

<g
   id="g5">
	<path
   d="M 38.709,242.874 C 38.709,376.974 127.341,485.729 236.673,485.729 C 345.969,485.729 434.601,376.973 434.601,242.874 C 434.601,108.774 345.969,0.018 236.673,0.018 C 127.341,0.018 38.709,108.774 38.709,242.874 L 38.709,242.874 z "
   style="fill-rule:evenodd;stroke:black;stroke-width:0.036;stroke-miterlimit:10"
   id="path7" />
	<path
   d="M 42.921,243.306 C 42.921,375.174 130.041,482.13 237.501,482.13 C 344.96,482.13 432.081,375.174 432.081,243.306 C 432.081,111.402 344.961,4.446 237.501,4.446 C 130.041,4.446 42.921,111.402 42.921,243.306 L 42.921,243.306 z "
   style="fill:white;fill-rule:evenodd;stroke:black;stroke-width:0.036;stroke-miterlimit:10"
   id="path9" />
	<path
   d="M 56.097,199.422 C 54.873,194.562 52.677,191.106 49.365,188.622 C 46.053,186.138 41.589,184.806 36.369,184.77 C 31.005,184.662 22.761,184.482 17.613,188.118 C 12.357,191.718 8.217,198.054 5.337,206.154 C 2.313,214.146 -0.279,225.954 0.045,235.746 C 0.333,245.502 2.349,256.878 7.497,263.897 C 12.573,270.809 24.489,275.238 30.609,276.641 C 36.549,277.757 40.149,274.662 43.353,271.097 C 46.521,267.497 48.429,262.205 49.365,255.221 L 49.365,255.221 L 56.097,199.422 L 56.097,199.422 z "
   style="fill-rule:evenodd;stroke:black;stroke-width:0.036;stroke-miterlimit:10"
   id="path11" />
	<path
   d="M 50.085,259.326 C 49.509,257.49 48.789,256.733 47.925,256.914 C 47.061,257.166 46.017,258.318 44.793,260.514 C 43.353,262.638 41.805,266.922 39.753,269.19 C 37.629,271.278 36.045,273.079 32.769,273.043 C 29.385,272.863 24.381,271.063 20.277,268.471 C 16.137,265.735 11.061,262.099 8.253,257.419 C 5.301,252.667 3.753,247.015 3.177,240.319 L 3.177,240.319 C 2.853,239.095 3.069,236.287 3.681,231.895 C 4.293,227.359 5.229,219.583 7.029,213.859 C 8.793,207.955 11.025,201.583 14.013,197.515 C 16.965,193.447 20.493,190.891 24.597,189.559 C 28.485,188.047 34.137,188.587 37.809,188.839 C 41.337,189.019 44.001,189.667 46.233,190.783 C 48.357,191.863 50.013,193.303 51.057,195.103 C 52.101,196.723 51.741,199.747 52.497,200.863 C 53.181,201.907 54.009,202.195 55.125,201.583 C 56.133,200.863 57.213,199.603 58.509,197.263 L 58.509,197.263 C 55.701,217.926 52.893,238.626 50.085,259.326 L 50.085,259.326 z "
   style="fill:white;fill-rule:evenodd"
   id="path13" />
	<path
   d="M 45.297,211.23 C 44.793,209.718 42.165,207.126 39.753,205.938 C 37.197,204.606 33.561,203.166 30.357,203.994 C 27.009,204.786 23.121,206.694 20.493,210.978 C 17.829,215.262 15.489,222.786 14.985,229.266 C 14.409,235.674 15.021,244.71 17.361,248.995 C 19.665,253.099 25.137,254.179 28.917,254.035 C 32.517,253.747 37.989,249.571 39.501,247.77 C 40.869,245.898 39.609,242.982 37.809,243.198 C 35.973,243.379 31.581,248.274 28.917,248.995 C 26.073,249.606 23.445,248.887 21.717,246.835 C 19.989,244.639 19.053,241.039 19.053,236.467 C 18.981,231.787 19.881,223.831 21.465,219.403 C 22.941,214.939 25.785,211.411 28.197,209.791 C 30.573,208.027 33.417,208.459 35.901,209.287 C 38.277,210.115 40.977,214.147 42.633,214.579 C 44.145,214.794 45.729,212.706 45.297,211.23 L 45.297,211.23 z "
   style="fill-rule:evenodd;stroke:black;stroke-width:0.036;stroke-miterlimit:10"
   id="path15" />
	<path
   d="M 420.777,201.51 C 421.965,196.686 424.161,193.122 427.508,190.674 C 430.784,188.154 435.105,186.93 440.468,186.858 C 445.796,186.75 454.004,186.57 459.26,190.206 C 464.445,193.806 468.477,200.142 471.5,208.242 C 474.416,216.234 477.008,228.042 476.792,237.834 C 476.396,247.59 474.38,258.966 469.34,265.986 C 464.156,272.897 452.204,277.326 446.265,278.729 C 440.216,279.845 436.617,276.75 433.521,273.185 C 430.317,269.585 428.409,264.293 427.508,257.309 L 427.508,257.309 L 420.777,201.51 L 420.777,201.51 z "
   style="fill-rule:evenodd;stroke:black;stroke-width:0.036;stroke-miterlimit:10"
   id="path17" />
	<path
   d="M 426.789,261.414 C 427.329,259.578 428.049,258.822 428.949,259.002 C 429.705,259.254 430.749,260.406 432.081,262.602 C 433.485,264.726 435.033,269.01 437.121,271.278 C 439.173,273.367 440.722,275.167 444.105,275.131 C 447.38,274.951 452.42,273.151 456.597,270.559 C 460.628,267.859 465.741,264.116 468.62,259.471 C 471.536,254.683 473.048,249.139 473.696,242.407 L 473.696,242.407 C 473.984,241.183 473.768,238.375 473.192,233.983 C 472.472,229.447 471.536,221.671 469.843,215.947 C 468.043,210.043 465.812,203.671 462.86,199.603 C 459.799,195.535 456.272,192.979 452.276,191.647 C 448.208,190.135 442.628,190.675 439.028,190.927 C 435.392,191.107 432.728,191.755 430.604,192.871 C 428.335,193.951 426.788,195.391 425.816,197.191 C 424.664,198.811 425.06,201.835 424.376,202.951 C 423.62,203.995 422.685,204.283 421.712,203.671 C 420.668,202.951 419.553,201.691 418.364,199.351 L 418.364,199.351 C 421.173,220.014 423.981,240.714 426.789,261.414 L 426.789,261.414 z "
   style="fill:white;fill-rule:evenodd"
   id="path19" />
	<path
   d="M 431.577,213.318 C 432.009,211.806 434.601,209.214 437.121,208.026 C 439.569,206.694 443.241,205.254 446.481,206.082 C 449.756,206.874 453.645,208.782 456.344,213.066 C 458.865,217.35 461.313,224.874 461.889,231.354 C 462.357,237.762 461.781,246.798 459.477,251.082 C 457.029,255.186 451.664,256.266 447.956,256.122 C 444.248,255.834 438.776,251.658 437.372,249.857 C 435.968,247.986 437.12,245.07 439.028,245.286 C 440.756,245.466 445.22,250.362 447.956,251.082 C 450.656,251.622 453.428,250.937 455.156,248.886 C 456.812,246.655 457.64,243.162 457.784,238.554 C 457.712,233.874 456.92,225.918 455.408,221.49 C 453.86,216.918 451.016,213.57 448.676,211.842 C 446.193,210.042 443.349,210.582 440.973,211.374 C 438.489,212.202 435.825,216.234 434.241,216.666 C 432.621,216.882 431.037,214.794 431.577,213.318 L 431.577,213.318 z "
   style="fill-rule:evenodd;stroke:black;stroke-width:0.036;stroke-miterlimit:10"
   id="path21" />
	<path
   d="M 157.185,4.554 C 152.361,4.086 148.833,4.482 146.205,5.598 C 143.613,6.714 142.029,8.55 141.597,11.25 L 141.597,11.25 C 136.485,11.142 132.525,11.61 129.573,13.05 C 126.621,14.382 124.677,16.506 123.885,19.422 L 123.885,19.422 C 119.997,19.71 116.757,20.934 113.625,22.95 C 110.529,24.894 107.865,27.774 105.489,31.446 L 105.489,31.446 C 99.657,35.19 95.049,38.682 91.665,42.066 C 88.209,45.45 86.013,48.546 84.933,51.642 L 84.933,51.642 C 79.281,56.682 74.205,62.586 69.705,70.038 C 65.133,77.382 61.497,86.814 57.681,95.562 C 53.721,104.274 48.789,115.002 46.341,121.77 C 43.821,128.322 42.633,132.642 42.777,134.874 L 42.777,134.874 C 37.773,134.262 34.281,134.442 32.157,135.558 C 30.033,136.566 29.277,138.51 30.033,141.246 L 30.033,141.246 C 24.417,141.03 20.745,141.894 18.729,143.694 C 16.749,145.53 16.461,148.266 18.009,152.19 L 18.009,152.19 C 14.769,153.738 13.041,156.294 12.681,160.002 C 12.285,163.71 13.401,168.282 15.885,174.15 L 15.885,174.15 C 16.065,177.822 17.073,180.558 19.053,182.646 C 20.889,184.518 23.301,185.526 27.549,186.21 C 31.797,186.858 39.645,187.47 44.577,186.93 C 49.473,186.282 53.757,186.75 56.601,182.646 C 59.229,178.434 60.777,171.738 60.849,162.126 L 60.849,162.126 C 64.557,157.266 67.041,153.018 68.301,149.382 C 69.525,145.71 69.525,142.686 68.301,140.166 L 68.301,140.166 C 70.893,136.818 72.657,134.01 73.593,131.31 C 74.421,128.646 74.421,126.234 73.593,124.218 L 73.593,124.218 C 77.697,115.362 82.053,107.046 87.057,98.73 C 92.025,90.306 97.713,81.45 103.005,74.646 C 108.081,67.842 111.897,63.414 117.513,58.014 C 122.985,52.434 130.149,45.234 135.945,41.706 C 141.597,38.106 148.149,38.358 151.857,36.774 C 155.457,35.118 157.509,33.678 157.869,32.166 L 157.869,32.166 C 162.909,32.598 167.121,31.77 170.649,29.682 C 174.141,27.414 177.777,23.526 178.785,19.422 C 179.613,15.282 178.389,8.154 175.941,5.238 C 173.313,2.322 167.085,2.142 163.917,2.07 C 160.749,1.998 158.553,2.682 157.185,4.554 L 157.185,4.554 z "
   style="fill-rule:evenodd;stroke:black;stroke-width:0.036;stroke-miterlimit:10"
   id="path23" />
	<path
   d="M 156.393,7.29 C 154.017,6.426 151.965,6.606 149.949,7.83 C 147.933,8.982 146.133,11.178 144.405,14.418 L 144.405,14.418 C 138.753,13.446 134.613,13.734 131.697,15.138 C 128.781,16.542 127.233,19.062 127.053,22.842 L 127.053,22.842 C 122.517,23.094 118.737,24.174 115.425,26.226 C 112.077,28.278 109.449,31.158 107.397,35.01 L 107.397,35.01 C 102.177,37.962 98.145,40.95 94.869,44.118 C 91.593,47.25 89.325,50.418 88.065,53.766 L 88.065,53.766 C 81.981,59.454 76.977,65.574 72.513,72.558 C 67.977,79.506 65.313,86.742 61.605,95.094 C 57.717,103.266 52.497,114.282 49.977,121.734 C 47.421,129.186 46.341,134.802 46.593,139.266 L 46.593,139.266 C 42.273,137.394 39.249,136.854 37.125,137.646 C 35.001,138.402 34.029,140.382 34.065,143.73 L 34.065,143.73 C 29.565,143.19 26.361,143.478 24.057,144.45 C 21.825,145.386 20.781,147.51 20.493,149.454 C 20.061,151.29 20.313,153.27 21.393,155.538 L 21.393,155.538 C 19.341,155.79 17.793,157.014 16.893,158.922 C 15.849,160.758 15.489,164.79 15.813,167.13 C 16.065,169.434 17.073,171.342 18.693,172.854 L 18.693,172.854 C 18.873,175.77 19.773,177.966 21.393,179.838 C 22.941,181.602 24.093,182.898 28.161,183.582 C 32.193,184.194 40.653,184.518 45.333,183.582 C 49.833,182.466 53.217,181.134 55.341,177.354 C 57.321,173.502 58.041,167.958 57.501,160.722 L 57.501,160.722 C 60.957,156.618 63.153,152.91 64.485,149.454 C 65.709,145.89 65.889,142.866 65.025,139.95 L 65.025,139.95 C 68.553,136.062 70.569,132.822 71.613,129.942 C 72.549,127.062 72.153,124.722 70.569,122.778 L 70.569,122.778 C 75.681,111.258 81.261,100.638 87.705,90.342 C 94.113,79.902 101.421,69.498 108.801,61.362 C 116.181,53.19 124.929,46.098 131.157,41.886 C 137.097,37.71 141.237,37.674 144.945,36.342 C 148.581,34.866 151.317,34.398 153.153,33.282 C 154.953,32.058 155.601,30.942 155.493,29.538 L 155.493,29.538 C 160.857,29.574 165.213,28.746 168.561,26.91 C 171.945,25.074 174.681,21.87 175.509,18.666 C 176.049,15.354 175.005,9.27 172.665,7.218 C 170.325,5.058 164.673,5.706 161.937,5.814 C 159.273,5.85 157.293,6.246 156.393,7.29 L 156.393,7.29 z "
   style="fill:white;fill-rule:evenodd;stroke:black;stroke-width:0.036;stroke-miterlimit:10"
   id="path25" />
	<path
   d="M 33.885,176.634 C 35.361,176.562 37.521,176.922 39.789,176.454 C 41.949,175.662 44.649,174.366 46.773,172.854 C 48.861,171.27 50.481,169.362 51.777,167.67 C 52.857,165.834 53.289,162.594 53.757,162.666 C 54.117,162.81 55.701,166.014 54.621,168.39 C 53.397,170.622 49.653,174.258 47.133,176.094 C 44.541,177.786 42.309,178.686 39.609,178.938 C 36.837,179.118 31.797,177.606 30.861,177.318 C 29.961,176.922 32.265,176.742 33.885,176.634 L 33.885,176.634 z "
   style="fill-rule:evenodd;stroke:black;stroke-width:0.036;stroke-miterlimit:10"
   id="path27" />
	<path
   d="M 36.945,172.494 C 37.881,173.826 41.697,177.966 43.389,178.938 C 44.973,179.802 47.205,178.902 46.773,178.038 C 46.197,176.994 42.273,174.654 40.689,173.394 C 39.105,172.098 38.277,170.838 37.665,170.73 C 36.873,170.55 36.081,171.09 36.945,172.494 L 36.945,172.494 z "
   style="fill-rule:evenodd;stroke:black;stroke-width:0.036;stroke-miterlimit:10"
   id="path29" />
	<path
   d="M 42.849,170.55 C 43.785,171.918 47.745,174.618 49.437,175.734 C 51.021,176.778 52.209,177.714 52.317,177.138 C 52.245,176.418 51.021,173.826 49.617,172.134 C 48.105,170.262 44.793,167.238 43.713,166.95 C 42.489,166.626 41.877,169.074 42.849,170.55 L 42.849,170.55 z "
   style="fill-rule:evenodd;stroke:black;stroke-width:0.036;stroke-miterlimit:10"
   id="path31" />
	<path
   d="M 315.081,4.518 C 319.797,4.086 323.397,4.446 326.025,5.598 C 328.581,6.714 330.165,8.55 330.632,11.25 L 330.632,11.25 C 335.78,11.07 339.668,11.61 342.693,13.014 C 345.645,14.346 347.481,16.47 348.345,19.386 L 348.345,19.386 C 352.16,19.746 355.437,20.934 358.605,22.95 C 361.628,25.002 364.401,27.738 366.777,31.446 L 366.777,31.446 C 372.609,35.19 377.073,38.682 380.565,42.066 C 383.985,45.45 386.181,48.582 387.296,51.606 L 387.296,51.606 C 392.876,56.61 397.952,62.622 402.525,70.038 C 407.132,77.418 410.553,86.742 414.585,95.526 C 418.509,104.238 423.297,114.966 425.89,121.734 C 428.337,128.286 429.526,132.606 429.453,134.838 L 429.453,134.838 C 434.421,134.19 437.913,134.478 440.073,135.558 C 442.161,136.602 442.917,138.438 442.197,141.21 L 442.197,141.21 C 447.741,140.994 451.521,141.822 453.537,143.694 C 455.481,145.494 455.806,148.374 454.222,152.19 L 454.222,152.19 C 457.425,153.666 459.154,156.258 459.549,159.966 C 459.909,163.638 458.793,168.318 456.345,174.15 L 456.345,174.15 C 456.129,177.786 455.121,180.666 453.177,182.646 C 451.234,184.554 448.858,185.454 444.682,186.174 C 440.289,186.822 432.585,187.434 427.69,186.894 C 422.686,186.21 418.438,186.786 415.629,182.646 C 412.858,178.47 411.489,171.666 411.381,162.09 L 411.381,162.09 C 407.602,157.23 405.226,152.982 403.965,149.346 C 402.705,145.674 402.705,142.614 403.965,140.166 L 403.965,140.166 C 401.266,136.818 399.537,134.01 398.638,131.31 C 397.738,128.646 397.738,126.234 398.638,124.218 L 398.638,124.218 C 394.57,115.362 390.034,107.046 385.173,98.73 C 380.133,90.234 374.373,81.558 369.261,74.646 C 364.114,67.77 360.19,63.414 354.717,57.978 C 349.102,52.362 342.045,45.27 336.321,41.706 C 330.489,38.142 324.008,38.25 320.373,36.738 C 316.737,35.082 314.685,33.642 314.361,32.13 L 314.361,32.13 C 309.321,32.562 305.073,31.734 301.617,29.646 C 298.054,27.378 294.309,23.49 293.445,19.386 C 292.545,15.246 293.769,8.082 296.289,5.238 C 298.773,2.25 305.109,2.106 308.35,2.034 C 311.481,1.854 313.677,2.682 315.081,4.518 L 315.081,4.518 z "
   style="fill-rule:evenodd;stroke:black;stroke-width:0.036;stroke-miterlimit:10"
   id="path33" />
	<path
   d="M 315.873,7.254 C 318.142,6.39 320.229,6.57 322.281,7.794 C 324.26,9.018 326.061,11.178 327.825,14.418 L 327.825,14.418 C 333.441,13.446 337.581,13.734 340.533,15.138 C 343.413,16.578 344.961,18.99 345.177,22.806 L 345.177,22.806 C 349.677,23.022 353.457,24.21 356.806,26.226 C 360.118,28.314 362.709,31.05 364.869,34.974 L 364.869,34.974 C 369.945,37.89 374.157,40.986 377.361,44.118 C 380.637,47.25 382.725,50.418 384.165,53.766 L 384.165,53.766 C 390.177,59.418 395.217,65.538 399.717,72.522 C 404.146,79.362 406.81,86.778 410.625,95.058 C 414.478,103.23 419.554,114.246 422.253,121.698 C 424.737,129.15 425.925,134.766 425.673,139.23 L 425.673,139.23 C 429.957,137.358 432.982,136.818 435.142,137.61 C 437.194,138.366 438.202,140.346 438.165,143.694 L 438.165,143.694 C 442.629,143.154 445.833,143.442 448.173,144.414 C 450.333,145.35 451.306,147.474 451.774,149.418 C 452.278,151.254 451.845,153.234 450.874,155.502 L 450.874,155.502 C 452.926,155.754 454.366,156.978 455.338,158.886 C 456.166,160.758 456.67,164.754 456.418,167.13 C 456.13,169.434 455.122,171.342 453.538,172.854 L 453.538,172.854 C 453.286,175.77 452.494,177.966 450.874,179.838 C 449.29,181.602 447.994,182.898 444.07,183.582 C 439.929,184.194 431.469,184.518 426.898,183.582 C 422.29,182.502 418.906,181.062 416.89,177.318 C 414.837,173.466 414.118,167.922 414.73,160.686 L 414.73,160.686 C 411.31,156.582 409.042,152.874 407.782,149.418 C 406.486,145.962 406.306,142.758 407.242,139.95 L 407.242,139.95 C 403.714,136.062 401.554,132.822 400.618,129.942 C 399.646,127.062 400.006,124.722 401.698,122.778 L 401.698,122.778 C 396.586,111.294 390.862,100.566 384.526,90.306 C 378.009,79.938 370.702,69.462 363.43,61.362 C 355.942,53.226 347.194,46.026 341.074,41.85 C 335.062,37.674 330.886,37.638 327.286,36.306 C 323.542,34.83 320.807,34.326 319.078,33.282 C 317.242,32.094 316.594,30.834 316.738,29.502 L 316.738,29.502 C 311.301,29.538 307.054,28.71 303.706,26.874 C 300.286,24.966 297.406,21.906 296.723,18.666 C 296.075,15.354 297.155,9.27 299.567,7.218 C 301.835,5.094 307.451,5.634 310.295,5.778 C 313.065,5.814 314.793,6.21 315.873,7.254 L 315.873,7.254 z "
   style="fill:white;fill-rule:evenodd;stroke:black;stroke-width:0.036;stroke-miterlimit:10"
   id="path35" />
	<path
   d="M 438.346,176.598 C 436.797,176.526 434.602,176.886 432.442,176.418 C 430.21,175.698 427.509,174.33 425.458,172.854 C 423.298,171.27 421.678,169.362 420.454,167.67 C 419.338,165.834 418.87,162.594 418.51,162.666 C 417.971,162.81 416.422,166.014 417.611,168.39 C 418.691,170.658 422.543,174.186 425.134,176.058 C 427.618,177.822 429.887,178.65 432.622,178.938 C 435.25,179.118 440.398,177.606 441.406,177.318 C 442.27,176.958 439.821,176.67 438.346,176.598 L 438.346,176.598 z "
   style="fill-rule:evenodd;stroke:black;stroke-width:0.036;stroke-miterlimit:10"
   id="path37" />
	<path
   d="M 435.321,172.494 C 434.277,173.826 430.461,177.966 428.877,178.938 C 427.222,179.802 424.917,178.902 425.457,178.038 C 425.961,176.994 429.886,174.654 431.541,173.394 C 433.089,172.134 433.881,170.766 434.602,170.694 C 435.249,170.478 436.186,171.126 435.321,172.494 L 435.321,172.494 z "
   style="fill-rule:evenodd;stroke:black;stroke-width:0.036;stroke-miterlimit:10"
   id="path39" />
	<path
   d="M 429.417,170.514 C 428.445,171.954 424.341,174.474 422.793,175.698 C 421.102,176.742 419.949,177.678 419.913,177.138 C 419.877,176.418 421.101,173.826 422.613,172.134 C 424.017,170.262 427.329,167.238 428.517,166.95 C 429.598,166.662 430.354,168.966 429.417,170.514 L 429.417,170.514 z "
   style="fill-rule:evenodd;stroke:black;stroke-width:0.036;stroke-miterlimit:10"
   id="path41" />
	<path
   d="M 207.729,167.382 C 207.729,174.726 213.705,180.702 221.049,180.702 C 228.429,180.702 234.405,174.726 234.405,167.382 C 234.405,160.002 228.429,154.062 221.049,154.062 C 213.705,154.062 207.729,160.002 207.729,167.382 L 207.729,167.382 z "
   style="fill-rule:evenodd;stroke:black;stroke-width:0.036;stroke-miterlimit:10"
   id="path43" />
	<path
   d="M 214.461,163.89 C 214.461,165.87 216.081,167.49 218.097,167.49 C 220.077,167.49 221.697,165.87 221.697,163.89 C 221.697,161.874 220.077,160.254 218.097,160.254 C 216.081,160.254 214.461,161.874 214.461,163.89 L 214.461,163.89 z "
   style="fill:white;fill-rule:evenodd;stroke:black;stroke-width:0.036;stroke-miterlimit:10"
   id="path45" />
	<path
   d="M 178.245,139.302 C 181.809,136.998 189.585,133.398 195.597,131.274 C 201.573,129.006 208.989,127.278 213.957,126.63 C 218.817,125.946 223.605,126.666 224.577,127.674 C 225.297,128.718 222.741,131.454 218.853,132.822 C 214.821,134.046 206.613,133.758 201.033,135.414 C 195.381,136.926 189.405,140.418 185.481,142.398 C 181.557,144.342 179.253,146.862 177.453,147.33 C 175.437,147.69 173.997,145.998 174.105,144.738 C 174.213,143.406 174.573,141.462 178.245,139.302 L 178.245,139.302 z "
   style="fill-rule:evenodd;stroke:black;stroke-width:0.036;stroke-miterlimit:10"
   id="path47" />
	<path
   d="M 283.329,167.382 C 283.329,174.726 277.353,180.702 270.009,180.702 C 262.629,180.702 256.654,174.726 256.654,167.382 C 256.654,160.002 262.63,154.062 270.009,154.062 C 277.354,154.062 283.329,160.002 283.329,167.382 L 283.329,167.382 z "
   style="fill-rule:evenodd;stroke:black;stroke-width:0.036;stroke-miterlimit:10"
   id="path49" />
	<path
   d="M 272.709,163.638 C 272.709,165.618 271.089,167.238 269.073,167.238 C 267.093,167.238 265.473,165.618 265.473,163.638 C 265.473,161.622 267.092,160.002 269.073,160.002 C 271.089,160.002 272.709,161.622 272.709,163.638 L 272.709,163.638 z "
   style="fill:white;fill-rule:evenodd;stroke:black;stroke-width:0.036;stroke-miterlimit:10"
   id="path51" />
	<path
   d="M 312.813,139.302 C 309.176,136.998 301.401,133.398 295.46,131.274 C 289.376,129.006 281.96,127.278 277.101,126.63 C 272.132,125.946 267.345,126.666 266.481,127.674 C 265.653,128.718 268.209,131.454 272.205,132.822 C 276.129,134.046 284.337,133.758 290.025,135.414 C 295.569,136.926 301.545,140.418 305.577,142.398 C 309.43,144.342 311.733,146.862 313.605,147.33 C 315.513,147.69 316.953,145.998 316.953,144.738 C 316.737,143.406 316.377,141.462 312.813,139.302 L 312.813,139.302 z "
   style="fill-rule:evenodd;stroke:black;stroke-width:0.036;stroke-miterlimit:10"
   id="path53" />
	<path
   d="M 70.389,158.814 C 70.857,154.494 74.277,143.442 76.761,136.35 C 79.137,129.079 83.349,118.998 85.077,116.371 C 86.841,113.815 87.813,116.911 87.021,121.087 C 86.013,125.155 81.801,133.939 79.533,140.779 C 77.229,147.583 74.925,158.455 73.449,161.587 C 71.865,164.43 69.777,163.134 70.389,158.814 L 70.389,158.814 z "
   style="fill-rule:evenodd;stroke:black;stroke-width:0.036;stroke-miterlimit:10"
   id="path55" />
	<path
   d="M 69.561,167.13 C 68.913,168.318 67.797,173.358 68.157,174.618 C 68.589,175.698 71.037,175.554 71.757,174.33 C 72.261,173.034 72.117,168.606 71.757,167.418 C 71.217,166.122 70.209,165.978 69.561,167.13 L 69.561,167.13 z "
   style="fill-rule:evenodd;stroke:black;stroke-width:0.036;stroke-miterlimit:10"
   id="path57" />
	<path
   d="M 89.973,105.822 C 89.001,106.866 86.553,111.294 86.661,112.698 C 86.733,113.922 89.217,114.282 90.225,113.346 C 91.125,112.302 91.953,107.91 92.025,106.686 C 91.953,105.282 90.801,104.85 89.973,105.822 L 89.973,105.822 z "
   style="fill-rule:evenodd;stroke:black;stroke-width:0.036;stroke-miterlimit:10"
   id="path59" />
	<path
   d="M 319.257,43.254 C 323.11,45.126 332.541,51.534 338.661,56.214 C 344.709,60.714 353.061,67.806 355.113,70.29 C 356.913,72.738 353.601,72.738 350.037,70.686 C 346.365,68.418 339.309,61.758 333.585,57.51 C 327.717,53.19 318.142,47.682 315.693,45.306 C 313.245,42.822 315.405,41.49 319.257,43.254 L 319.257,43.254 z "
   style="fill-rule:evenodd;stroke:black;stroke-width:0.036;stroke-miterlimit:10"
   id="path61" />
	<path
   d="M 311.589,39.906 C 310.509,38.79 306.19,36.378 304.894,36.27 C 303.562,36.234 303.093,38.754 304.066,39.798 C 305.002,40.662 309.286,41.886 310.654,41.922 C 311.913,41.886 312.453,40.842 311.589,39.906 L 311.589,39.906 z "
   style="fill-rule:evenodd;stroke:black;stroke-width:0.036;stroke-miterlimit:10"
   id="path63" />
	<path
   d="M 363.646,78.174 C 362.818,76.878 359.362,73.314 358.138,72.918 C 356.877,72.558 355.654,74.862 356.409,76.086 C 357.129,77.202 360.909,79.434 362.205,79.866 C 363.357,80.046 364.293,79.434 363.646,78.174 L 363.646,78.174 z "
   style="fill-rule:evenodd;stroke:black;stroke-width:0.036;stroke-miterlimit:10"
   id="path65" />
	<path
   d="M 234.981,395.189 C 225.333,394.181 221.481,394.469 210.465,391.122 C 199.413,387.702 181.593,381.941 169.353,375.065 C 157.149,368.118 147.501,360.557 137.781,350.009 C 128.097,339.389 117.909,324.917 111.645,312.173 C 105.381,299.393 101.745,286.902 100.485,274.049 L 100.485,274.049 C 100.305,271.421 101.025,269.009 102.645,266.417 C 104.229,263.789 109.557,260.549 110.025,258.785 C 110.349,257.02 107.541,254.356 105.093,255.797 C 102.573,257.237 97.641,261.701 95.301,266.957 C 92.817,272.033 91.413,281.393 90.945,286.289 C 90.477,291.113 91.989,294.425 92.853,295.829 C 93.681,297.161 95.193,296.657 95.841,294.173 C 96.345,291.617 96.489,287.081 96.129,280.565 L 96.129,280.565 C 98.541,293.238 102.897,305.801 109.737,318.689 C 116.505,331.542 124.893,346.229 136.413,357.353 C 147.969,368.333 164.961,377.837 177.813,384.318 C 190.449,390.654 202.401,392.885 211.581,395.477 C 220.581,397.961 224.829,398.538 231.705,399.293 C 238.545,399.905 245.493,399.905 252.405,399.293 C 259.281,398.537 263.457,397.961 272.565,395.477 C 281.637,392.885 293.588,390.654 306.333,384.318 C 318.97,377.838 336.142,368.334 347.697,357.353 C 359.073,346.229 367.605,331.541 374.409,318.689 C 381.177,305.801 385.569,293.238 388.017,280.565 L 388.017,280.565 C 387.657,287.082 387.693,291.618 388.269,294.173 C 388.809,296.657 390.357,297.161 391.256,295.829 C 392.048,294.425 393.525,291.113 393.164,286.289 C 392.624,281.393 391.221,272.033 388.809,266.957 C 386.397,261.701 381.464,257.237 379.017,255.797 C 376.46,254.357 373.725,257.021 374.121,258.785 C 374.554,260.549 379.737,263.789 381.465,266.417 C 382.978,269.009 383.841,271.421 383.661,274.049 L 383.661,274.049 C 382.401,286.902 378.729,299.393 372.501,312.173 C 366.201,324.917 356.049,339.389 346.365,350.009 C 336.645,360.557 326.961,368.117 314.757,375.065 C 302.518,381.941 284.697,387.702 273.646,391.122 C 262.629,394.47 258.814,394.182 249.129,395.189 C 239.481,396.233 244.665,396.233 234.981,395.189 L 234.981,395.189 z "
   style="fill-rule:evenodd;stroke:black;stroke-width:0.036;stroke-miterlimit:10"
   id="path67" />
	<path
   d="M 228.501,477.773 C 224.145,477.486 212.805,475.685 205.461,473.921 C 198.081,472.085 187.461,469.313 184.725,467.837 C 182.025,466.289 184.941,464.957 189.189,465.389 C 193.365,465.785 202.473,469.169 209.565,470.681 C 216.549,472.121 227.601,473.238 230.913,474.461 C 233.973,475.649 232.749,477.773 228.501,477.773 L 228.501,477.773 z "
   style="fill-rule:evenodd;stroke:black;stroke-width:0.036;stroke-miterlimit:10"
   id="path69" />
	<path
   d="M 236.853,477.702 C 238.113,478.098 243.189,478.71 244.449,478.278 C 245.493,477.773 244.989,475.109 243.765,474.714 C 242.361,474.174 238.077,474.93 236.889,475.47 C 235.665,475.974 235.557,477.09 236.853,477.702 L 236.853,477.702 z "
   style="fill-rule:evenodd;stroke:black;stroke-width:0.036;stroke-miterlimit:10"
   id="path71" />
	<path
   d="M 173.673,464.13 C 174.825,464.922 179.541,466.794 180.873,466.686 C 182.097,466.327 182.241,463.915 181.161,463.05 C 179.973,462.186 175.545,461.79 174.285,462.006 C 172.989,462.114 172.557,463.338 173.673,464.13 L 173.673,464.13 z "
   style="fill-rule:evenodd;stroke:black;stroke-width:0.036;stroke-miterlimit:10"
   id="path73" />
</g>
<path
   style="fill:#666666"
   d="m 29.758603,183.17071 c -5.087855,-0.7053 -8.924132,-3.50674 -9.79747,-7.15461 -0.263744,-1.10164 -1.142104,-3.32596 -1.951911,-4.94294 -2.154179,-4.30136 -1.982659,-10.48896 0.355568,-12.82719 1.00537,-1.00537 2.275662,-1.97718 2.822873,-2.15958 0.725713,-0.24191 0.788696,-0.87408 0.232762,-2.3363 -2.086967,-5.48914 1.558372,-9.45232 8.694245,-9.45232 4.392709,0 4.647593,-0.10555 4.647593,-1.92443 0,-3.1898 2.15169,-4.67003 5.886872,-4.0498 6.677423,1.10878 6.344086,1.29841 6.910021,-3.93089 0.858446,-7.93214 3.616999,-15.31834 15.645538,-41.891918 8.251532,-18.229369 10.704235,-22.207585 21.072738,-34.179395 2.642207,-3.050776 5.745473,-7.008856 6.896148,-8.795733 2.214901,-3.439506 8.599486,-9.175468 13.46864,-12.100329 1.60674,-0.965159 4.15536,-3.472487 5.66359,-5.57184 2.91394,-4.055984 9.37812,-7.991343 13.16379,-8.014044 2.69994,-0.01619 3.62007,-0.728219 4.53003,-3.505493 1.32261,-4.036732 4.33546,-5.583204 11.07198,-5.683158 5.85623,-0.08689 5.96129,-0.125261 7.81567,-2.85421 1.94119,-2.8567333 4.87683,-4.4744271 8.32122,-4.5854438 1.08957,-0.035118 5.06383,-0.2529539 8.83169,-0.4840801 6.27379,-0.3848427 6.98368,-0.2774487 8.43033,1.2753399 1.68895,1.8128737 2.54822,4.910163 2.54822,9.185177 0,5.382275 -7.81995,11.364937 -14.90234,11.401056 -2.75796,0.01407 -3.82311,0.467058 -5.55383,2.361955 -1.59088,1.741788 -4.35705,3.062687 -10.75949,5.137856 -4.73994,1.536317 -10.08558,3.659575 -11.87919,4.718352 -5.81587,3.433142 -18.40387,14.45382 -24.58502,21.523976 -10.396171,11.891384 -25.412185,35.329907 -33.189367,51.805332 -3.458242,7.32606 -3.814367,8.56188 -3.119598,10.82564 0.887798,2.89272 -0.570548,7.01199 -4.138566,11.68991 -1.518864,1.99133 -2.021817,3.60588 -2.034918,6.53235 -0.01906,4.257 -2.022533,9.39317 -5.371223,13.76983 -1.84359,2.40953 -2.204836,3.79794 -2.613692,10.04539 -0.578977,8.84698 -2.052752,11.83213 -7.078749,14.33811 -4.105104,2.04682 -12.772735,2.84005 -20.034154,1.83343 l 0,0 z m 16.79322,-3.93047 c 0.600618,-0.38043 0.845455,-1.09065 0.544082,-1.57828 -0.756827,-1.22457 1.826487,-2.08802 2.933884,-0.98062 1.752686,1.75268 2.983589,1.06838 2.127673,-1.18285 -0.65844,-1.73182 -0.455966,-2.51972 1.208227,-4.70158 2.086529,-2.73558 2.521587,-5.46 1.194677,-7.48132 -0.693578,-1.05654 -0.866973,-1.05654 -1.56055,0 -0.429152,0.65374 -0.785736,1.58626 -0.79241,2.07226 -0.0067,0.48601 -0.755879,1.82917 -1.664901,2.98481 l -1.652767,2.10115 -2.409037,-2.02707 c -1.324971,-1.11489 -2.809877,-1.89362 -3.299793,-1.73052 -1.603265,0.53375 -1.465136,3.04305 0.269129,4.88909 2.521816,2.68435 -0.0034,3.34141 -3.035737,0.78989 -3.785501,-3.18529 -5.348322,-2.26256 -2.787468,1.6458 l 1.279749,1.95314 -3.458875,0.0121 c -4.389289,0.0154 -6.470386,1.131 -3.761678,2.01651 1.038192,0.33939 4.205419,0.86263 7.038283,1.16274 2.832864,0.30012 5.507246,0.59083 5.943071,0.64603 0.435825,0.0552 1.283824,-0.21089 1.884441,-0.59132 l 0,1e-5 z"
   id="path3262"
   inkscape:connector-curvature="0" /><path
   style="fill:#666666"
   d="m 427.15095,183.07143 c -8.18738,-1.6116 -11.18737,-5.78271 -11.95374,-16.62017 -0.4176,-5.90554 -0.79477,-7.24463 -2.76982,-9.83405 -3.09299,-4.05514 -5.38114,-10.35686 -5.11234,-14.07979 0.16713,-2.31468 -0.27515,-3.68485 -1.81057,-5.60914 -4.23802,-5.31134 -5.72147,-10.31161 -3.9089,-13.17572 1.23134,-1.94567 -11.00435,-25.285175 -21.6319,-41.262733 C 369.1991,66.306263 361.0369,57.052082 349.09369,47.489922 c -8.9876,-7.1958 -11.55594,-8.628758 -20.52923,-11.453901 -7.98344,-2.513499 -10.91201,-3.958619 -10.91201,-5.384585 0,-1.349499 -1.73431,-2.045454 -5.09723,-2.045454 -7.9788,0 -15.50542,-6.147659 -15.50542,-12.664652 0,-3.404966 1.9181,-7.6365166 3.95587,-8.7270954 1.59878,-0.8556458 5.81555,-0.8107636 16.82973,0.1791318 3.89552,0.3501082 6.17233,1.8245399 8.25079,5.3430936 1.09458,1.852974 1.61785,2.002356 7.01396,2.002356 6.75492,0 9.79372,1.602197 11.07166,5.837495 0.5395,1.787974 1.35973,2.655844 2.77343,2.934502 7.00107,1.379997 12.52463,4.540223 15.44355,8.835801 0.97757,1.438626 3.88141,4.073095 6.45297,5.854375 6.09895,4.224654 11.17464,9.132086 13.02422,12.592458 0.81532,1.525389 3.99051,5.585673 7.05597,9.022856 3.06546,3.437182 7.18099,8.607654 9.14564,11.489937 3.39503,4.980745 16.23926,32.06705 21.64869,45.6534 2.73765,6.87589 5.70386,17.70399 5.70386,20.82182 0,1.65027 0.27148,1.86459 1.78292,1.40752 0.9806,-0.29654 3.22328,-0.73262 4.98372,-0.96907 3.54088,-0.47558 4.78554,0.40316 5.24167,3.70063 0.23447,1.69497 0.73171,2.01037 3.44367,2.18429 6.81261,0.4369 8.27119,0.96909 9.57707,3.49438 0.8317,1.60833 1.08942,3.35106 0.75733,5.12125 -0.42475,2.26406 -0.17203,2.96833 1.61745,4.50758 3.2606,2.80465 3.90405,8.47442 1.54519,13.61544 -0.99985,2.17913 -2.04286,4.70158 -2.31782,5.60545 -0.27496,0.90387 -1.52704,2.62744 -2.78239,3.83015 -3.2509,3.11455 -13.74834,4.43984 -22.118,2.79235 l 0,0 z m 12.07438,-4.84429 c 3.90498,-0.98335 2.45705,-2.20315 -2.63617,-2.22086 -3.33114,-0.0116 -3.43066,-0.0783 -2.17913,-1.46125 1.48959,-1.64597 1.75004,-4.09775 0.43531,-4.09775 -0.48187,0 -1.91786,0.87656 -3.1911,1.94792 -1.39515,1.17394 -2.82721,1.75135 -3.60416,1.45321 -1.11711,-0.42867 -1.05358,-0.6855 0.4759,-1.924 1.82254,-1.47579 2.0434,-4.6587 0.36165,-5.21179 -0.48991,-0.16113 -1.98671,0.62924 -3.32621,1.75635 l -2.43546,2.0493 -1.17272,-1.81841 c -0.64499,-1.00013 -1.61238,-2.79903 -2.14974,-3.99755 -1.10631,-2.46748 -1.91725,-2.75412 -2.61888,-0.9257 -0.87003,2.26724 -0.507,4.03395 1.40905,6.85742 1.31462,1.93718 1.76144,3.45786 1.46765,4.99477 -0.32154,1.68198 -0.15789,2.10221 0.68528,1.75972 0.60924,-0.24746 1.72676,-0.69868 2.48339,-1.0027 1.01234,-0.40677 1.57562,-0.0269 2.13255,1.43788 0.72282,1.90116 0.98162,1.97257 5.75599,1.58833 2.74952,-0.22127 6.39759,-0.75448 8.1068,-1.18489 l 0,0 z"
   id="path3264"
   inkscape:connector-curvature="0" /><path
   style="fill:#000000"
   id="path3278"
   d="m 246.92364,170.6447 c -0.009,1.99736 -0.1445,3.98982 -0.53816,5.94976 -0.3545,1.57338 -0.96084,3.06998 -1.38419,4.62271 -0.41891,1.38749 -0.81185,2.78478 -1.26414,4.16201 -0.41814,1.6176 -1.03711,3.15048 -1.80392,4.63044 -0.9012,1.53972 -1.61325,3.17375 -2.31884,4.80899 -0.73869,2.07542 -1.77225,4.01909 -2.76087,5.98128 -1.13138,2.11115 -2.3331,4.18685 -3.54373,6.25411 -1.30988,2.3121 -2.87822,4.45872 -4.30882,6.69325 -1.26533,2.05352 -2.42985,4.17555 -3.50089,6.33668 -1.1652,2.37763 -2.13799,4.84257 -3.34568,7.1989 -1.31386,2.33161 -2.49364,4.73143 -3.87955,7.02206 -1.58447,2.53018 -3.04352,5.14369 -4.47524,7.76384 -1.33226,2.32534 -2.54093,4.70969 -3.68469,7.1321 -1.18303,2.53248 -2.46566,5.01701 -3.66864,7.53975 -1.09369,2.39157 -1.9697,4.87601 -2.80712,7.36666 -0.54229,1.67356 -0.92691,3.38582 -1.09001,5.13572 -0.1334,2.41919 -0.0876,4.84376 -0.0621,7.26522 -0.0191,1.7175 -0.0974,3.37475 0.59211,4.97335 1.17895,1.81502 3.13964,2.85843 4.92302,3.99599 2.14139,1.52415 4.68073,2.32837 7.21487,2.9239 3.04961,0.57228 6.1664,0.58969 9.2584,0.63321 3.72275,0.021 7.44558,0.008 11.16837,0.0125 4.20124,0.004 8.40248,-0.002 12.60372,-0.002 4.34263,0.005 8.68526,0.001 13.0279,0.006 5.04734,0.0109 10.09463,0.0312 15.14199,0.0325 4.76049,0.0144 9.52092,-0.0261 14.28133,-0.0503 3.14962,-0.0311 6.29944,-0.0289 9.44918,-0.028 2.49208,-0.009 4.98427,-0.006 7.4762,-0.0385 1.37043,-0.0134 2.74093,-0.0119 4.11133,-0.027 4.11445,-0.0441 6.05901,-1.02984 -9.13059,5.28951 -0.41248,0.17161 0.21409,-0.8692 0.27446,-1.31186 0.16123,-1.18222 0.19597,-2.7663 0.24431,-3.94181 0.0715,-2.57255 0.009,-5.14638 -0.0858,-7.71739 0.14157,-3.23214 0.12383,-6.46852 0.0602,-9.70227 -0.0246,-1.96335 0.003,-3.87126 -0.48836,-5.77941 -0.58963,-2.24475 -1.88951,-4.12377 -3.18241,-6.00047 -1.46671,-2.28633 -3.24932,-4.29742 -5.27565,-6.09792 -1.88644,-1.58608 -3.71194,-3.25567 -5.65326,-4.77565 -2.78433,-2.10145 -5.45419,-4.34494 -8.06204,-6.66012 -2.09173,-1.8303 -3.85361,-3.99172 -5.56446,-6.17076 -1.38094,-1.80403 -2.88409,-3.50392 -4.44369,-5.15377 -1.80666,-1.63653 -3.274,-3.52205 -4.69127,-5.49043 -1.35411,-2.13552 -3.07697,-3.99324 -4.70711,-5.91508 -1.44505,-1.59762 -3.01887,-3.08631 -4.60184,-4.55068 -2.0047,-1.90932 -3.88217,-3.87353 -5.48475,-6.13608 -1.22069,-2.2049 -2.44843,-4.40815 -3.59544,-6.65266 -0.65212,-1.31424 -1.10094,-2.69552 -1.33493,-4.14036 -0.15325,-1.25312 -0.32326,-2.50342 -0.48191,-3.7563 0.0221,-1.26503 -0.47071,-2.3896 -0.77208,-3.5786 -0.13148,-1.64009 -0.44048,-3.24428 -0.79485,-4.84853 -0.12334,-0.60536 -0.30547,-1.19733 -0.41272,-1.80557 -0.47191,-1.3918 -0.88996,-2.77804 -1.56098,-4.09059 -0.27695,-0.60988 -0.52422,-1.23293 -0.74463,-1.86534 0.16665,0.45888 0.071,0.19491 0.28667,0.79205 0,0 9.34417,-7.29251 9.34417,-7.29251 l 0,0 c 0.59888,0.52047 0.33808,0.23707 0.79117,0.84207 0.10293,0.59588 0.32133,1.16694 0.54424,1.72616 0.62567,1.38924 1.05915,2.84046 1.69227,4.22111 0.25271,0.61946 0.28433,1.28173 0.40816,1.93897 0.28883,1.59633 0.66021,3.17696 0.79498,4.79637 0.28042,1.24428 0.84891,2.41606 0.76117,3.73737 0.14815,1.25133 0.45799,2.4673 0.57372,3.70681 0.1098,1.34144 0.45941,2.63071 1.02897,3.85414 1.0756,2.21261 2.24674,4.37947 3.44535,6.52743 1.57696,2.18414 3.3954,4.10288 5.38928,5.91426 1.62724,1.48931 3.27877,2.97568 4.69438,4.67147 1.62163,1.96439 3.32274,3.87495 4.74715,5.99108 1.38262,1.92844 2.84699,3.74861 4.5977,5.36436 1.58415,1.67438 3.16111,3.35925 4.48162,5.25619 1.66615,2.12741 3.39777,4.21904 5.4152,6.02722 2.55713,2.33217 5.199,4.56944 8.01484,6.58674 1.98854,1.51235 3.9336,3.09725 5.7155,4.85169 2.03557,1.91881 3.93933,3.97147 5.5603,6.25802 1.28317,2.01852 2.52296,4.06667 3.26011,6.36353 0.22827,0.71776 0.56212,1.64843 0.66794,2.41073 0.16725,1.20493 -0.16376,2.46567 -0.0607,3.67295 -0.0567,3.20526 -0.0762,6.41407 0.0933,9.61655 -0.0602,2.63215 -0.1416,5.26385 -0.17756,7.89655 -0.005,0.32011 -0.0906,5.4207 -0.0936,5.42307 -8.05514,6.31144 -6.40226,6.71304 -11.00928,6.61652 -1.3456,-0.0153 -2.6913,-0.0134 -4.03692,-0.027 -2.45658,-0.0327 -4.91343,-0.0287 -7.37017,-0.0385 -3.12405,9e-4 -6.24819,0.003 -9.37214,-0.028 -4.7142,-0.0244 -9.42843,-0.0651 -14.14273,-0.0504 -5.07708,0.001 -10.15409,0.0216 -15.23115,0.0323 -4.34866,0.005 -8.6973,6e-4 -13.04595,0.008 -4.20819,0.003 -8.4164,5.6e-4 -12.62455,0.0192 -3.73754,0.0174 -7.47535,0.0389 -11.2128,-0.004 -3.17717,-0.0513 -6.38661,-0.0585 -9.49697,-0.79567 -2.6196,-0.71802 -5.21021,-1.61998 -7.43888,-3.2166 -1.98632,-1.26128 -4.06989,-2.48629 -5.34405,-4.53486 -0.81146,-1.7572 -0.9199,-3.49956 -0.79219,-5.42026 0.0124,-2.44166 0.0354,-4.88326 0.0437,-7.32493 0.002,-0.25863 7e-4,-1.58441 0.0456,-1.93458 0.15287,-1.19136 0.72222,-2.32584 0.94299,-3.50158 0.82985,-2.5275 1.72015,-5.04009 2.7676,-7.4863 1.12416,-2.56602 2.52802,-5.00255 3.68305,-7.55581 1.1238,-2.44302 2.25908,-4.87979 3.64711,-7.18803 1.40697,-2.65572 2.95555,-5.24438 4.46606,-7.83895 1.42997,-2.23815 2.5629,-4.63222 3.87089,-6.94027 1.30285,-2.29637 2.22048,-4.76688 3.37941,-7.13627 0.96641,-2.23851 2.20253,-4.36854 3.4408,-6.46554 1.36748,-2.26606 2.99794,-4.35923 4.31646,-6.65834 1.18501,-2.06088 2.35983,-4.12582 3.55864,-6.17753 0.95087,-1.94814 2.0595,-3.83034 2.74624,-5.89508 0.68017,-1.65899 1.32998,-3.34674 2.26541,-4.88148 0.72922,-1.43745 1.54419,-2.83482 1.85318,-4.44227 0.42826,-1.36973 0.81838,-2.74436 1.31225,-4.0943 0.34838,-1.58703 0.96746,-3.07382 1.39655,-4.63767 0.56628,-1.82192 0.72199,-3.75994 0.60604,-5.65988 0,0 10.4775,-5.33856 10.4775,-5.33856 z"
   inkscape:connector-curvature="0"
   transform="translate(0,-5.6335113e-6)" /><path
   style="fill:#ff7f2a"
   d="M 223.35572,481.03748 C 165.66332,475.50963 114.00446,439.79742 79.551544,381.6244 64.538359,356.27496 52.773672,323.28992 47.473427,291.68593 c -2.783351,-16.5964 -2.922215,-20.62868 -0.85731,-24.8942 0.974341,-2.01272 1.966872,-5.11589 2.205625,-6.89592 0.697623,-5.20117 -1.896282,-3.76932 -6.019571,3.32282 -4.280768,7.36302 -7.524903,9.87112 -11.7441,9.07959 -7.288012,-1.36724 -17.995543,-8.6919 -22.1109959,-15.12539 -4.0899817,-6.39367 -5.3936548,-12.501 -4.8114805,-22.54038 0.893481,-15.40776 5.848641,-31.69986 11.6437044,-38.2834 4.800485,-5.45364 9.2169,-7.27516 17.310332,-7.13954 11.69155,0.1959 15.923374,2.29879 18.338641,9.11287 0.874406,2.46693 1.650259,3.42507 2.773433,3.42507 3.587281,0 1.854391,-6.92305 -3.018429,-12.05889 -2.223616,-2.34364 -2.296589,-2.58761 -0.901798,-3.015 3.098002,-0.9493 5.368019,-2.41617 6.870475,-4.43965 1.893328,-2.54991 3.724918,-10.01974 3.764401,-15.35247 0.0246,-3.32367 0.602359,-4.84665 3.585765,-9.45226 3.954176,-6.10422 5.426821,-10.45643 4.942334,-14.60641 -0.245536,-2.10318 0.309237,-3.81923 2.307517,-7.1377 2.039211,-3.38645 2.630767,-5.25317 2.630767,-8.30168 0,-3.29048 0.81848,-5.4984 5.011005,-13.51758 C 92.72231,88.371787 105.49456,70.39287 120.85297,55.505525 134.3111,42.460187 137.01381,40.684878 146.6262,38.576075 c 3.75518,-0.823825 7.24154,-2.176651 9.12434,-3.540545 2.15962,-1.564419 4.39578,-2.346488 7.67782,-2.685224 7.69375,-0.794065 14.72398,-6.961853 15.83177,-13.889599 l 0.49048,-3.067273 8.13349,-2.464985 c 20.52673,-6.220952 29.30823,-7.5767225 49.33878,-7.6173752 11.56262,-0.023466 18.05181,0.3418028 23.99724,1.3507796 9.21437,1.5637363 24.48906,5.3819126 28.78921,7.1963706 2.58489,1.090703 2.90492,1.566066 3.27707,4.867801 0.7995,7.093057 9.24657,13.842004 17.32485,13.842004 2.12936,0 3.87156,0.349337 3.87156,0.776305 0,1.249145 5.58977,3.748952 12.12859,5.424044 8.48113,2.172661 11.83569,4.398986 23.25267,15.43209 14.0613,13.58852 22.60745,24.539094 34.13701,43.741343 8.58258,14.294109 13.1276,24.051989 13.72243,29.461249 0.35294,3.20942 1.31416,6.21272 2.78977,8.7165 1.68018,2.85089 2.27421,4.92557 2.34155,8.17821 0.0937,4.52522 2.50473,10.39228 6.40955,15.59721 1.35775,1.80982 1.89238,3.55659 1.89238,6.18285 0,2.01322 0.58238,6.22088 1.29416,9.35037 1.63311,7.18022 4.5312,10.45544 9.97374,11.27159 4.51518,0.6771 5.51327,2.84086 2.63711,5.71703 -4.26139,4.26138 -5.80957,11.70786 -2.43415,11.70786 1.05776,0 1.79008,-0.77124 2.25724,-2.37723 1.35018,-4.64162 2.61903,-6.36305 6.11198,-8.29209 3.11403,-1.71979 4.52893,-1.95619 11.8563,-1.98103 9.44843,-0.032 12.11693,0.87167 17.03623,5.76933 3.58057,3.56482 5.92588,8.06286 8.54582,16.38993 4.84999,15.41499 5.69077,31.0406 2.17454,40.41289 -3.33995,8.90236 -17.44629,20.04583 -25.77195,20.35883 -3.73361,0.14036 -6.50637,-1.97452 -9.6346,-7.34866 -3.22361,-5.53797 -6.31534,-9.21283 -7.09534,-8.43356 -0.33833,0.33802 -0.13045,2.47753 0.46196,4.75446 2.27363,8.7387 0.2922,26.22376 -5.67165,50.0494 -6.3889,25.52374 -16.32697,49.64929 -29.39833,71.36709 -31.62775,52.54889 -79.92432,87.17161 -132.58446,95.04682 -10.3594,1.54923 -28.01052,2.11158 -37.55964,1.19662 z m 21.90478,-3.54162 c 0.91351,-2.38055 -1.3179,-3.73228 -5.21878,-3.16143 -4.54205,0.66468 -5.71982,1.70303 -3.65789,3.22487 2.10105,1.55071 8.27419,1.5066 8.87667,-0.0635 l 0,4e-5 z m -12.66198,-0.83558 c 0.2621,-0.68304 0.15585,-1.56258 -0.23612,-1.95455 -0.39196,-0.39196 -5.87722,-1.61803 -12.18946,-2.72459 -6.31224,-1.10656 -15.39922,-3.07759 -20.1933,-4.38007 -11.9327,-3.24193 -20.50174,-3.06987 -15.27914,0.3068 2.52464,1.6323 16.05759,5.53731 25.97667,7.49572 14.39745,2.84261 21.16392,3.23051 21.92135,1.25669 z m -50.44809,-11.81779 c 0,-2.1054 -1.53964,-2.83393 -6.47605,-3.06434 -3.86396,-0.18035 -3.92606,2.11447 -0.10014,3.7006 4.61273,1.91232 6.57619,1.72235 6.57619,-0.63626 z m 72.50546,-65.45372 c 13.05539,-1.56111 38.59474,-8.61533 49.98666,-13.8068 13.30108,-6.06149 33.54239,-18.87729 41.62022,-26.35186 15.00753,-13.88675 32.5474,-43.52997 38.98561,-65.88755 l 1.91891,-6.66368 0.3742,4.51243 c 0.46872,5.65215 1.72855,7.17688 3.81785,4.62062 2.25123,-2.75439 2.64618,-7.7365 1.25319,-15.80847 -1.83215,-10.61673 -3.94538,-15.57936 -8.74367,-20.53332 -4.17569,-4.31116 -6.96142,-5.32719 -9.00445,-3.28416 -1.65245,1.65245 -1.05887,3.14005 2.94005,7.36833 5.15202,5.4475 5.83398,8.09467 4.38819,17.03373 -3.78027,23.37279 -17.87311,49.49451 -37.99449,70.42452 -16.49952,17.16259 -31.09005,26.10333 -57.05348,34.96101 -17.66827,6.0277 -21.89289,7.06216 -34.16415,8.36555 -9.97634,1.05963 -12.36097,1.05747 -22.07918,-0.02 -12.82423,-1.42184 -15.62568,-2.09914 -32.90273,-7.95472 -25.7089,-8.71333 -39.50929,-16.88228 -55.49958,-32.85225 -22.71543,-22.68656 -39.11073,-53.33221 -40.88556,-76.42218 -0.57705,-7.50712 0.0934,-9.35209 5.19274,-14.2897 3.33419,-3.22845 3.93372,-4.96461 2.28405,-6.61428 -3.83972,-3.83973 -13.062725,5.2137 -15.983578,15.6897 -2.157787,7.73921 -3.111594,16.78405 -2.147493,20.36445 1.945357,7.2245 5.535994,5.90711 5.702923,-2.09238 0.05056,-2.4227 0.25518,-3.69173 0.454709,-2.82008 3.057549,13.35669 13.805329,36.39159 24.362149,52.21351 12.45258,18.66321 27.44178,30.78472 54.98807,44.46793 9.34484,4.64192 18.13665,7.63133 34.74235,11.81313 16.74042,4.21575 29.35633,5.25139 43.44649,3.56653 l 0,-4e-5 z m 52.77615,-104.92381 c 1.48088,-1.08648 3.90982,-2.76079 5.39763,-3.72068 1.48781,-0.9599 2.29013,-1.88359 1.78292,-2.05266 -0.65436,-0.21812 -0.92219,-4.32488 -0.92219,-14.1401 0,-12.55483 -0.15608,-14.13865 -1.68958,-17.14456 -2.824,-5.53548 -4.69329,-7.60085 -13.79995,-15.24749 -5.27081,-4.42577 -11.89211,-11.08119 -16.6406,-16.72636 -4.3376,-5.15669 -10.60921,-12.25929 -13.9369,-15.78354 -7.60371,-8.05286 -9.8501,-12.45984 -11.82197,-23.19251 -1.52484,-8.29956 -3.63541,-15.21737 -4.64269,-15.21737 -0.27964,0 -1.30095,0.5551 -2.26957,1.23354 -1.64889,1.15493 -1.76114,1.12968 -1.76114,-0.3962 0,-0.89636 -0.17154,-1.62975 -0.3812,-1.62975 -0.20966,0 -2.70575,1.14628 -5.54687,2.5473 -4.2411,2.09138 -5.16566,2.8916 -5.16566,4.47093 0,6.1208 -7.30131,23.28773 -16.09587,37.84482 -2.87102,4.75222 -5.97307,10.34275 -6.89343,12.42339 -0.92037,2.08065 -3.74618,7.43405 -6.27956,11.89645 -11.88694,20.93806 -15.10607,29.32653 -15.10607,39.36363 0,6.42858 0.17659,7.23353 2.08424,9.50065 2.67167,3.1751 9.07781,6.41812 14.15221,7.16438 2.1835,0.32111 24.86658,0.62833 50.40687,0.68269 l 46.43686,0.0989 2.69252,-1.97543 0,0 z m 145.21658,-38.39287 c 6.98705,-1.62119 9.61965,-7.32065 9.53704,-20.64723 -0.0961,-15.51064 -5.60045,-26.72302 -14.41514,-29.36397 -2.90653,-0.87081 -3.99499,-0.82821 -7.56129,0.29597 -4.40218,1.38767 -9.24223,5.37214 -9.24223,7.60849 0,1.58566 1.49324,3.23409 2.92963,3.23409 0.56532,0 2.36607,-1.19655 4.00167,-2.65899 6.72065,-6.00914 12.87216,-3.4085 16.80572,7.10486 1.85001,4.94461 2.89403,15.73046 2.06059,21.2882 -1.15993,7.73503 -6.45845,9.66303 -13.11906,4.77369 -4.07526,-2.99151 -6.12357,-3.46517 -6.8458,-1.58304 -1.2567,3.27489 3.14788,8.14613 8.93272,9.8791 2.9933,0.89672 3.33356,0.9001 6.91615,0.0689 l 0,-3e-5 z M 36.081236,251.15016 c 4.118255,-2.95113 5.295541,-5.92868 3.073327,-7.77295 -1.042978,-0.8656 -1.991224,-0.51671 -6.106974,2.24695 -2.679755,1.79941 -5.450381,3.27166 -6.156945,3.27166 -2.103724,0 -4.899122,-2.40433 -6.079251,-5.22877 -2.208458,-5.28559 -0.825606,-20.90456 2.403716,-27.14938 0.622304,-1.2034 2.294641,-3.32523 3.716305,-4.71517 3.700517,-3.61793 7.523001,-3.51705 11.759498,0.31037 3.282206,2.96528 5.220919,3.24319 6.661882,0.95497 2.012704,-3.19613 -6.697214,-9.56898 -12.960008,-9.48255 -4.076884,0.0563 -9.321358,2.92191 -11.635695,6.35788 -4.90788,7.28646 -7.396853,19.99011 -5.937883,30.3068 1.180093,8.34469 2.168127,10.24708 6.472094,12.46159 5.001996,2.57367 9.713644,2.07625 14.789934,-1.5614 l 0,0 z M 228.17224,178.94682 c 4.38488,-2.95497 6.27721,-6.47276 6.27721,-11.66918 0,-7.59731 -4.63378,-12.67151 -12.14016,-13.294 -5.27788,-0.43768 -9.24079,1.24862 -12.27116,5.22163 -1.83073,2.40022 -2.1344,3.55984 -2.1344,8.15068 0,5.97462 1.25105,8.42185 5.93502,11.60973 3.67366,2.50027 10.60889,2.49115 14.33349,-0.0189 l 0,0 z m 49.07538,0.0189 c 4.07975,-2.77665 5.76013,-5.60464 6.15426,-10.35724 0.25215,-3.04061 -0.0476,-5.13037 -1.03411,-7.20927 -4.71345,-9.93286 -19.54519,-10.12403 -24.61646,-0.31729 -3.03881,5.87641 -0.53096,14.68449 5.11278,17.9571 4.07615,2.36362 10.8537,2.32908 14.38353,-0.0733 l 0,0 z M 71.147066,175.25931 c 0.704052,-0.44564 1.122579,-2.07583 1.122579,-4.37253 0,-6.51553 -3.13438,-6.96563 -3.991783,-0.57321 -0.657864,4.90473 0.306847,6.56765 2.869204,4.94574 z m 2.22212,-12.93423 c 0.420927,-0.54478 1.93675,-5.09123 3.368498,-10.10322 1.431748,-5.01199 4.533711,-14.28318 6.893248,-20.60265 4.29963,-11.51553 5.067554,-16.24439 2.637947,-16.24439 -3.52409,0 -17.878263,41.20809 -16.198128,46.50173 0.527451,1.66184 2.186638,1.88747 3.298435,0.44853 z M 180.96181,145.83491 c 3.29355,-2.24729 14.34573,-7.8348 18.20273,-9.20253 1.75578,-0.62261 7.05043,-1.6432 11.76591,-2.26797 8.85101,-1.17272 12.86134,-2.75136 13.6997,-5.3928 0.67447,-2.12508 -0.92854,-2.873 -6.18799,-2.88713 -15.09424,-0.0405 -45.00824,12.29365 -45.00824,18.55787 0,2.99062 3.97081,3.61967 7.52789,1.19256 l 0,0 z m 135.81823,0.54027 c 1.10343,-1.32955 0.14237,-4.24499 -2.05009,-6.21901 -0.83575,-0.75249 -5.24483,-3.11073 -9.79795,-5.24051 -11.93453,-5.58255 -23.74296,-8.84331 -32.02488,-8.84331 -5.23287,0 -6.76129,0.54193 -6.76129,2.39738 0,2.64629 4.8167,4.67664 13.97241,5.8897 4.73619,0.62752 10.05157,1.65167 11.81194,2.2759 3.7673,1.3359 12.90241,5.94709 17.40197,8.78412 3.56421,2.24728 6.10538,2.57336 7.44789,0.95573 l 0,0 z M 90.925125,112.7849 c 2.347481,-4.38632 1.607419,-9.55419 -1.052122,-7.34697 -1.635842,1.35763 -3.788842,6.33153 -3.296288,7.61512 0.609711,1.58887 3.448241,1.41383 4.34841,-0.26815 z M 364.40461,79.084802 c 0,-0.565288 -1.41045,-2.40506 -3.13432,-4.088382 -2.64916,-2.586827 -3.32379,-2.903351 -4.35826,-2.044815 -1.84617,1.532184 -1.49186,2.872923 1.3514,5.11375 2.74141,2.160554 6.14118,2.724923 6.14118,1.019447 z m -8.71651,-8.0054 c 0,-1.533898 -7.20067,-7.967576 -17.70661,-15.820565 -15.81525,-11.821591 -23.98776,-15.817701 -23.35569,-11.42022 0.17888,1.244523 3.16092,3.745154 10.15833,8.518402 5.44782,3.716201 13.57844,9.698548 18.06804,13.294106 6.07415,4.86456 8.7608,6.537378 10.49943,6.537378 1.47417,0 2.3365,-0.409335 2.3365,-1.109101 z M 312.10558,40.942287 c 0,-1.460561 -4.03756,-4.341347 -6.45396,-4.604875 -1.49292,-0.162816 -1.91495,0.216255 -2.10926,1.894612 -0.19486,1.683018 0.1971,2.25858 1.98102,2.908977 3.36116,1.225439 6.5822,1.128197 6.5822,-0.198714 z"
   id="path3280"
   inkscape:connector-curvature="0" /><path
   style="fill:#ff7f2a"
   d="m 213.95732,287.60706 c -3.69648,-1.06372 -8.53205,-4.24322 -10.1055,-6.6446 -1.06059,-1.61867 -1.23771,-3.28578 -0.9053,-8.52111 0.53032,-8.35221 3.66977,-16.27736 13.29131,-33.55226 3.91497,-7.02908 7.65589,-14.06723 8.31317,-15.64032 0.65728,-1.57309 3.80533,-7.23271 6.99567,-12.57694 3.19034,-5.34423 7.22839,-12.8206 8.97346,-16.61415 l 3.17284,-6.89735 1.33515,6.89735 c 1.80823,9.34122 4.45201,14.19248 12.40121,22.75581 3.70451,3.99072 9.9442,11.09705 13.86597,15.79185 4.22417,5.05681 10.77498,11.59051 16.07208,16.03011 5.51663,4.62359 10.06992,9.19208 11.88733,11.92702 l 2.94575,4.4329 0.2552,11.76045 0.25518,11.76047 -43.0453,-0.0715 c -25.11948,-0.0417 -44.15425,-0.39058 -45.70822,-0.83776 l 0,0 z"
   id="path3282"
   inkscape:connector-curvature="0" /></svg>