<?xml version="1.0" encoding="UTF-8" standalone="no"?>
<!-- Created with Inkscape (http://www.inkscape.org/) -->

<svg
   xmlns:dc="http://purl.org/dc/elements/1.1/"
   xmlns:cc="http://creativecommons.org/ns#"
   xmlns:rdf="http://www.w3.org/1999/02/22-rdf-syntax-ns#"
   xmlns:svg="http://www.w3.org/2000/svg"
   xmlns="http://www.w3.org/2000/svg"
   xmlns:sodipodi="http://sodipodi.sourceforge.net/DTD/sodipodi-0.dtd"
   xmlns:inkscape="http://www.inkscape.org/namespaces/inkscape"
   width="50"
   height="50"
   id="svg3336"
   version="1.1"
   inkscape:version="0.48.3.1 r9886"
   sodipodi:docname="comentarista3.svg"
   inkscape:export-filename="/home/jmerelo/txt/ocio/bolaextra/comentarista3-devil.png"
   inkscape:export-xdpi="72"
   inkscape:export-ydpi="72">
  <title
     id="title3408">personnage</title>
  <defs
     id="defs3338">
    <inkscape:perspective
       sodipodi:type="inkscape:persp3d"
       inkscape:vp_x="0 : 526.18109 : 1"
       inkscape:vp_y="0 : 1000 : 0"
       inkscape:vp_z="744.09448 : 526.18109 : 1"
       inkscape:persp3d-origin="372.04724 : 350.78739 : 1"
       id="perspective3344" />
    <inkscape:perspective
       id="perspective3315"
       inkscape:persp3d-origin="0.5 : 0.33333333 : 1"
       inkscape:vp_z="1 : 0.5 : 1"
       inkscape:vp_y="0 : 1000 : 0"
       inkscape:vp_x="0 : 0.5 : 1"
       sodipodi:type="inkscape:persp3d" />
    <inkscape:perspective
       id="perspective3592"
       inkscape:persp3d-origin="0.5 : 0.33333333 : 1"
       inkscape:vp_z="1 : 0.5 : 1"
       inkscape:vp_y="0 : 1000 : 0"
       inkscape:vp_x="0 : 0.5 : 1"
       sodipodi:type="inkscape:persp3d" />
    <inkscape:perspective
       id="perspective3680"
       inkscape:persp3d-origin="0.5 : 0.33333333 : 1"
       inkscape:vp_z="1 : 0.5 : 1"
       inkscape:vp_y="0 : 1000 : 0"
       inkscape:vp_x="0 : 0.5 : 1"
       sodipodi:type="inkscape:persp3d" />
    <inkscape:perspective
       id="perspective3780"
       inkscape:persp3d-origin="0.5 : 0.33333333 : 1"
       inkscape:vp_z="1 : 0.5 : 1"
       inkscape:vp_y="0 : 1000 : 0"
       inkscape:vp_x="0 : 0.5 : 1"
       sodipodi:type="inkscape:persp3d" />
    <inkscape:perspective
       id="perspective3910"
       inkscape:persp3d-origin="0.5 : 0.33333333 : 1"
       inkscape:vp_z="1 : 0.5 : 1"
       inkscape:vp_y="0 : 1000 : 0"
       inkscape:vp_x="0 : 0.5 : 1"
       sodipodi:type="inkscape:persp3d" />
    <inkscape:perspective
       id="perspective4004"
       inkscape:persp3d-origin="0.5 : 0.33333333 : 1"
       inkscape:vp_z="1 : 0.5 : 1"
       inkscape:vp_y="0 : 1000 : 0"
       inkscape:vp_x="0 : 0.5 : 1"
       sodipodi:type="inkscape:persp3d" />
  </defs>
  <sodipodi:namedview
     id="base"
     pagecolor="#ffffff"
     bordercolor="#666666"
     borderopacity="1.0"
     inkscape:pageopacity="0.0"
     inkscape:pageshadow="2"
     inkscape:zoom="3.959798"
     inkscape:cx="72.722673"
     inkscape:cy="35.137092"
     inkscape:document-units="px"
     inkscape:current-layer="layer1"
     showgrid="false"
     inkscape:window-width="1203"
     inkscape:window-height="639"
     inkscape:window-x="65"
     inkscape:window-y="24"
     inkscape:window-maximized="0" />
  <metadata
     id="metadata3341">
    <rdf:RDF>
      <cc:Work
         rdf:about="">
        <dc:format>image/svg+xml</dc:format>
        <dc:type
           rdf:resource="http://purl.org/dc/dcmitype/StillImage" />
        <dc:title>personnage</dc:title>
        <dc:creator>
          <cc:Agent>
            <dc:title>Antoine Bardelli</dc:title>
          </cc:Agent>
        </dc:creator>
        <dc:rights>
          <cc:Agent>
            <dc:title>Creaives Commons 2.0 Paternité / Licence Art Libre</dc:title>
          </cc:Agent>
        </dc:rights>
        <dc:language>Fr</dc:language>
        <dc:source>http://bardelli.fr/</dc:source>
      </cc:Work>
    </rdf:RDF>
  </metadata>
  <g
     inkscape:label="Calque 1"
     inkscape:groupmode="layer"
     id="layer1"
     transform="translate(0,-1002.3622)">
    <g
       style="display:inline;enable-background:new"
       id="g4931-5-3-2"
       transform="matrix(0.37155944,0,0,0.37155944,-222.4341,885.57849)">
      <path
         id="rect4371-0-7-2-5-5"
         d="M 667.375,335.59375 C 640.67676,335.27372 636.73854,368.51594 635,374.6875 l 2.8125,4.625 c -0.81982,2.12025 -1.3465,5.83395 -1.28125,10.09375 0.10219,6.67126 1.58396,12.12389 3.28125,12.1875 0.73511,0.0276 1.37486,-1.01417 1.875,-2.6875 L 644.03125,416.5 c 0.24156,0.56336 13.6875,15.44686 13.6875,15.5 7.98255,3.30326 11.39736,2.96028 19.4375,0.25 l 14.25,-16.21875 2.125,-20.09375 c 0.59745,2.46592 1.40927,4.0599 2.3125,4.09375 1.69729,0.0636 3.00844,-5.29749 2.90625,-11.96875 -0.0612,-3.99754 -0.63601,-7.52488 -1.4375,-9.75 l 2.28125,-4.375 c 0,0 -5.27034,-38.02073 -32.21875,-38.34375 z"
         style="fill:#ffffff;fill-opacity:1;stroke:#000000;stroke-width:4.76815653;stroke-miterlimit:4;stroke-dasharray:none" />
      <path
         sodipodi:nodetypes="cccccccc"
         id="rect4088-7-5-4-6"
         d="m 653.8368,405.25354 c -0.0202,5.42463 0.18752,13.98832 7.40012,15.6236 6.06834,0.0353 6.4062,-0.01 12.47516,0 7.69066,-0.54854 8.40699,-10.39035 8.54285,-15.79922 -1.36934,2.4909 -4.16692,4.25021 -7.3968,4.41543 l -7.14844,0 -7.14843,0 c 0.19796,0.35633 -4.83769,-0.84362 -6.72446,-4.23981 z"
         style="color:#000000;fill:none;stroke:#000000;stroke-width:1.77165353;stroke-miterlimit:4;stroke-opacity:1;stroke-dasharray:none;marker:none;visibility:visible;display:inline;overflow:visible;enable-background:accumulate" />
      <path
         sodipodi:type="arc"
         style="color:#000000;fill:#000000;fill-opacity:1;fill-rule:nonzero;stroke:none;stroke-width:0.99921262;marker:none;visibility:visible;display:inline;overflow:visible;enable-background:accumulate"
         id="path4754-6-1-6"
         sodipodi:cx="669.58569"
         sodipodi:cy="397.6286"
         sodipodi:rx="5.4639783"
         sodipodi:ry="1.2418132"
         d="m 675.04967,397.6286 c 0,0.68584 -2.4463,1.24181 -5.46398,1.24181 -3.01767,0 -5.46397,-0.55597 -5.46397,-1.24181 0,-0.68583 2.4463,-1.24181 5.46397,-1.24181 3.01768,0 5.46398,0.55598 5.46398,1.24181 z"
         transform="translate(-1.54033,-0.99345)" />
      <g
         id="g4839-7-9-1"
         transform="translate(-188.16518,291.11626)">
        <g
           transform="translate(-0.49672529,0.73130917)"
           id="g4799-7-0-9-1">
          <path
             style="color:#000000;fill:#000000;fill-opacity:1;stroke:none;stroke-width:1.77165353;marker:none;visibility:visible;display:inline;overflow:visible;enable-background:accumulate"
             d="m 653.75,377.53125 c -1.71459,0 -3.125,1.37916 -3.125,3.09375 0,0.4808 0.1174,0.9375 0.3125,1.34375 l 5.59375,0 c 0.1951,-0.40625 0.3125,-0.86295 0.3125,-1.34375 0,-1.71459 -1.37916,-3.09375 -3.09375,-3.09375 z"
             transform="translate(188.45464,-291.11626)"
             id="path4126-5-8-1-3" />
          <path
             transform="matrix(0.43137257,0,0,0.43137257,480.61336,50.31406)"
             d="m 843.68793,87.113197 c 0,1.748878 -1.41775,3.166624 -3.16663,3.166624 -1.74888,0 -3.16662,-1.417746 -3.16662,-3.166624 0,-1.748878 1.41774,-3.166624 3.16662,-3.166624 1.74888,0 3.16663,1.417746 3.16663,3.166624 z"
             sodipodi:ry="3.1666238"
             sodipodi:rx="3.1666238"
             sodipodi:cy="87.113197"
             sodipodi:cx="840.5213"
             id="path4128-5-9-3-7"
             style="color:#000000;fill:#ffffff;fill-opacity:1;fill-rule:nonzero;stroke:none;stroke-width:1.77165353;marker:none;visibility:visible;display:inline;overflow:visible;enable-background:accumulate"
             sodipodi:type="arc" />
          <path
             style="fill:#000000;fill-opacity:1;stroke:none"
             d="m 831.21716,85.40151 c 0,0 12.91486,-3.22872 17.13703,-0.24836 4.22216,2.98035 4.47052,3.22871 4.47052,3.22871 0,0 -1.73853,-5.46398 -10.67959,-6.70579 -8.94105,-1.24181 -11.67304,3.47708 -10.92796,3.72544 z"
             id="path4756-3-5-7" />
          <path
             style="fill:none;stroke:#000000;stroke-width:1px;stroke-linecap:butt;stroke-linejoin:miter;stroke-opacity:1"
             d="m 848.35419,90.1204 c 0,0 -0.64956,-8.21505 -11.42468,-3.72544 l -2.98036,1.24181"
             id="path4780-9-6-9"
             sodipodi:nodetypes="csc" />
        </g>
        <g
           id="g4799-5-9-6-1"
           transform="matrix(-1,0,0,1,1712.9178,0.73130917)">
          <path
             style="color:#000000;fill:#000000;fill-opacity:1;stroke:none;stroke-width:1.77165353;marker:none;visibility:visible;display:inline;overflow:visible;enable-background:accumulate"
             d="m 653.75,377.53125 c -1.71459,0 -3.125,1.37916 -3.125,3.09375 0,0.4808 0.1174,0.9375 0.3125,1.34375 l 5.59375,0 c 0.1951,-0.40625 0.3125,-0.86295 0.3125,-1.34375 0,-1.71459 -1.37916,-3.09375 -3.09375,-3.09375 z"
             transform="translate(188.45464,-291.11626)"
             id="path4126-5-6-3-1-8" />
          <path
             transform="matrix(0.43137257,0,0,0.43137257,480.61336,50.31406)"
             d="m 843.68793,87.113197 c 0,1.748878 -1.41775,3.166624 -3.16663,3.166624 -1.74888,0 -3.16662,-1.417746 -3.16662,-3.166624 0,-1.748878 1.41774,-3.166624 3.16662,-3.166624 1.74888,0 3.16663,1.417746 3.16663,3.166624 z"
             sodipodi:ry="3.1666238"
             sodipodi:rx="3.1666238"
             sodipodi:cy="87.113197"
             sodipodi:cx="840.5213"
             id="path4128-5-6-2-9-3"
             style="color:#000000;fill:#ffffff;fill-opacity:1;fill-rule:nonzero;stroke:none;stroke-width:1.77165353;marker:none;visibility:visible;display:inline;overflow:visible;enable-background:accumulate"
             sodipodi:type="arc" />
          <path
             style="fill:#000000;fill-opacity:1;stroke:none"
             d="m 831.21716,85.40151 c 0,0 12.91486,-3.22872 17.13703,-0.24836 4.22216,2.98035 4.47052,3.22871 4.47052,3.22871 0,0 -1.73853,-5.46398 -10.67959,-6.70579 -8.94105,-1.24181 -11.67304,3.47708 -10.92796,3.72544 z"
             id="path4756-9-9-0-3" />
          <path
             style="fill:none;stroke:#000000;stroke-width:1px;stroke-linecap:butt;stroke-linejoin:miter;stroke-opacity:1"
             d="m 848.35419,90.1204 c 0,0 -0.64956,-8.21505 -11.42468,-3.72544 l -2.98036,1.24181"
             id="path4780-5-4-3-0"
             sodipodi:nodetypes="csc" />
        </g>
      </g>
      <path
         id="path4895-3-9-1"
         d="m 663.09245,334.70996 c -0.41759,-1.1e-4 -0.8432,0.0139 -1.25,0.0312 -24.40826,1.04057 -27.875,33.30783 -27.875,37.59375 0,4.57164 3.75,6.5625 3.75,6.5625 l 3.21875,11.96875 c 0,0 -0.25654,-10.66921 -1.25,-19.8125 -0.99345,-9.14329 3.71875,-8.875 3.71875,-8.875 l 3.9375,-13.96875 16.96875,-0.0937 c -0.39852,2.0856 0.16987,4.95497 4.1875,8.09375 0.21863,-0.87455 -2.22592,-6.15954 4.125,-8.09375 l 15.0625,0.0937 3.90625,13.96875 c 0,0 4.7122,-0.26829 3.71875,8.875 -0.99346,9.14329 -1.21875,19.8125 -1.21875,19.8125 l 3.21875,-11.96875 c 0,0 3.71875,-1.99086 3.71875,-6.5625 0,-4.57165 -3.93322,-40.98183 -33.03125,-37.375 -0.16462,0.0204 -0.33171,0.0644 -0.5,0.0937 -0.16829,-0.0292 -0.33538,-0.0734 -0.5,-0.0937 -1.36397,-0.16907 -2.65347,-0.24967 -3.90625,-0.25 z"
         style="fill:#000000;fill-opacity:1;stroke:none" />
    </g>
    <path
       style="fill:#ff0000;stroke-width:10;stroke-linecap:round;stroke-linejoin:round;stroke-miterlimit:4;stroke-dasharray:none"
       d="M 24.417243,43.407511 C 22.893796,43.139373 22.525164,42.851545 20.01764,39.972313 L 17.821938,37.451127 17.1956,32.837977 c -0.344486,-2.537233 -0.680895,-4.667706 -0.747575,-4.734386 -0.06668,-0.06668 -0.319897,0.375268 -0.562706,0.982106 -0.416755,1.041574 -0.451282,1.06808 -0.61674,0.473464 -0.0964,-0.346434 -0.177952,-1.084448 -0.18123,-1.640031 l -0.006,-1.010153 0.340382,0.883883 0.340382,0.883884 0.01921,-1.163396 c 0.01057,-0.639868 -0.106213,-2.661855 -0.25951,-4.493304 -0.299153,-3.573979 -0.126242,-4.661066 0.787511,-4.95108 0.330681,-0.104954 1.983253,-2.991861 1.164956,-4.806622 l -3.582663,-7.9453759 7.409086,7.3236059 c 1.296298,1.281343 3.056595,0.09602 2.972957,0.231347 -0.205615,0.332691 0.309931,1.567228 0.931629,2.2309 0.665842,0.710795 1.034983,0.730906 0.817132,0.04452 -0.23435,-0.738373 0.30463,-1.884126 1.045013,-2.221467 0.344387,-0.156914 1.744285,-0.285298 3.110883,-0.285298 l 6.777872,-7.0710678 -3.657876,8.3968928 c 0,0 0.333264,1.054347 0.58146,1.957171 0.304503,1.107642 0.693092,1.869443 1.194832,2.342381 l 0.743567,0.700883 -0.17262,3.971073 c -0.09494,2.184089 -0.238762,4.36882 -0.319602,4.854955 -0.169908,1.021752 0.147685,0.849967 0.617117,-0.333797 0.301707,-0.760811 0.312559,-0.727315 0.20832,0.642978 -0.135779,1.784911 -0.242544,1.963663 -1.172857,1.963663 -0.423183,0 -0.74483,0.135808 -0.747637,0.315672 -0.01657,1.06169 -0.762047,6.820258 -0.916111,7.07665 -0.459705,0.765033 -4.80033,5.504623 -5.139878,5.612306 -1.137983,0.360892 -2.783888,0.508579 -3.757703,0.337179 z m 5.071127,-3.844116 c 1.096245,-0.720281 1.755908,-2.40639 1.910423,-4.883066 l 0.135893,-2.178208 -1.131504,1.180904 -1.131505,1.180903 -3.458196,0 -3.458197,0 -1.130779,-1.042316 -1.130779,-1.042315 0,1.408692 c 0,3.038777 0.79059,4.912809 2.377693,5.636134 1.160774,0.529025 6.093952,0.345722 7.016951,-0.260728 z m -1.674781,-8.768311 c 0.28747,-0.465137 -0.436852,-0.721646 -2.037755,-0.721646 -0.833376,0 -1.671841,0.0992 -1.863256,0.220436 -0.72869,0.461545 0.03483,0.781982 1.863256,0.781982 1.095386,0 1.935793,-0.115796 2.037755,-0.280772 z M 21.608955,24.93918 c 0,-0.319461 -0.136371,-0.717209 -0.303046,-0.883884 -0.235702,-0.235702 -0.233092,-0.303046 0.01175,-0.303046 0.173136,0 0.50838,0.340208 0.744988,0.756018 0.236608,0.41581 0.515428,0.756736 0.6196,0.757614 0.328149,0.0028 0.205757,-0.872824 -0.203724,-1.45744 -0.513146,-0.732619 -0.273528,-0.710214 0.749487,0.07008 0.875893,0.668076 1.158869,0.768984 1.158869,0.413245 0,-0.397851 -1.355706,-1.581523 -2.26304,-1.975868 -1.292155,-0.561597 -4.289486,-0.563794 -5.14419,-0.0038 -1.117677,0.73233 -0.881518,1.201191 0.525566,1.043434 l 1.199556,-0.13449 -0.864888,0.398228 c -1.215991,0.559888 -0.69505,1.041751 0.559527,0.517555 1.108992,-0.463366 1.39244,-0.486783 0.987214,-0.08156 -0.166675,0.166675 -0.303046,0.564423 -0.303046,0.883884 0,0.528646 0.113459,0.580837 1.262691,0.580837 1.149232,0 1.262691,-0.05219 1.262691,-0.580837 z m 10.859139,0 c 0,-0.319461 -0.13637,-0.717209 -0.303045,-0.883884 -0.405226,-0.405226 -0.121778,-0.381809 0.987214,0.08156 1.254577,0.524196 1.775517,0.04233 0.559527,-0.517555 l -0.864888,-0.398228 1.199556,0.13449 c 0.943989,0.105837 1.199556,0.05605 1.199556,-0.233664 0,-1.257489 -3.945464,-1.720501 -5.934646,-0.69645 -1.099909,0.566245 -2.325646,1.736988 -2.077931,1.984704 0.08515,0.08515 0.491417,-0.08487 0.902819,-0.377812 0.928899,-0.661434 1.141797,-0.673108 0.80519,-0.04415 -0.304924,0.569756 -0.344958,1.279997 -0.07202,1.277696 0.104172,-8.84e-4 0.382992,-0.341804 0.6196,-0.757614 0.236608,-0.41581 0.571852,-0.756018 0.744987,-0.756018 0.244838,0 0.247448,0.06734 0.01175,0.303046 -0.166675,0.166675 -0.303046,0.564423 -0.303046,0.883884 0,0.528646 0.113459,0.580837 1.262691,0.580837 1.149231,0 1.26269,-0.05219 1.262686,-0.580842 z"
       id="path3302"
       inkscape:connector-curvature="0"
       transform="translate(0,1002.3622)"
       sodipodi:nodetypes="cscssssccccsssscssssssccsscsssssssscccscccccccssccsscsscssscsssscscsssssccsssscsssssscsscsss" />
    <path
       style="fill:#008000;stroke-width:10;stroke-linecap:round;stroke-linejoin:round;stroke-miterlimit:4;stroke-dasharray:none"
       d="m 22.586583,38.776132 c -0.703849,-0.382447 -1.482705,-1.979296 -1.482705,-3.039916 0,-0.619359 0.01573,-0.624584 0.745074,-0.247428 1.035768,0.535617 6.474542,0.541038 7.750937,0.0077 l 0.903645,-0.377567 -0.17322,0.945778 c -0.231177,1.262222 -0.907945,2.389706 -1.664116,2.77239 -0.878328,0.444505 -5.229649,0.400858 -6.079615,-0.06098 l 0,0 z"
       id="path3304"
       inkscape:connector-curvature="0"
       transform="translate(0,1002.3622)" />
  </g>
</svg>
