<?xml version="1.0" encoding="UTF-8" standalone="no"?>
<!-- Created with Inkscape (http://www.inkscape.org/) -->

<svg
   xmlns:dc="http://purl.org/dc/elements/1.1/"
   xmlns:cc="http://creativecommons.org/ns#"
   xmlns:rdf="http://www.w3.org/1999/02/22-rdf-syntax-ns#"
   xmlns:svg="http://www.w3.org/2000/svg"
   xmlns="http://www.w3.org/2000/svg"
   xmlns:sodipodi="http://sodipodi.sourceforge.net/DTD/sodipodi-0.dtd"
   xmlns:inkscape="http://www.inkscape.org/namespaces/inkscape"
   width="111.42857"
   height="92.14286"
   id="svg15214"
   version="1.1"
   inkscape:version="0.48.3.1 r9886"
   sodipodi:docname="egipcio-cabreado.svg"
   inkscape:export-filename="/home/jmerelo/txt/ocio/bolaextra/egipcio-cabreado.png"
   inkscape:export-xdpi="72.279068"
   inkscape:export-ydpi="72.279068">
  <defs
     id="defs15216">
    <clipPath
       clipPathUnits="userSpaceOnUse"
       id="clipPath12121">
      <path
         inkscape:connector-curvature="0"
         d="m 123.602,487.826 80.576,0 0,-37.62 -80.576,0 0,37.62 z"
         id="path12123" />
    </clipPath>
    <clipPath
       clipPathUnits="userSpaceOnUse"
       id="clipPath12137">
      <path
         inkscape:connector-curvature="0"
         d="m 218.603,487.826 80.575,0 0,-37.62 -80.575,0 0,37.62 z"
         id="path12139" />
    </clipPath>
    <clipPath
       clipPathUnits="userSpaceOnUse"
       id="clipPath11747">
      <path
         inkscape:connector-curvature="0"
         d="m 105.205,366.183 4.31,0 0,-4.67 -4.31,0 0,4.67 z"
         id="path11749" />
    </clipPath>
    <clipPath
       clipPathUnits="userSpaceOnUse"
       id="clipPath11731">
      <path
         inkscape:connector-curvature="0"
         d="m 85.2046,366.183 4.3105,0 0,-4.67 -4.3105,0 0,4.67 z"
         id="path11733" />
    </clipPath>
    <clipPath
       clipPathUnits="userSpaceOnUse"
       id="clipPath11715">
      <path
         inkscape:connector-curvature="0"
         d="m 65.2046,366.183 4.3105,0 0,-4.67 -4.3105,0 0,4.67 z"
         id="path11717" />
    </clipPath>
    <clipPath
       clipPathUnits="userSpaceOnUse"
       id="clipPath11699">
      <path
         inkscape:connector-curvature="0"
         d="m 45.2046,366.183 4.3105,0 0,-4.67 -4.3105,0 0,4.67 z"
         id="path11701" />
    </clipPath>
    <clipPath
       clipPathUnits="userSpaceOnUse"
       id="clipPath11683">
      <path
         inkscape:connector-curvature="0"
         d="m 25.2046,366.183 4.3105,0 0,-4.67 -4.3105,0 0,4.67 z"
         id="path11685" />
    </clipPath>
    <clipPath
       clipPathUnits="userSpaceOnUse"
       id="clipPath12369">
      <path
         inkscape:connector-curvature="0"
         d="m 30.4229,527.497 5.9765,0 0,-4.407 -5.9765,0 0,4.407 z"
         id="path12371" />
    </clipPath>
    <clipPath
       clipPathUnits="userSpaceOnUse"
       id="clipPath12281">
      <path
         inkscape:connector-curvature="0"
         d="m 97.4873,550.507 6.2497,0 0,-6.25 -6.2497,0 0,6.25 z"
         id="path12283" />
    </clipPath>
    <clipPath
       clipPathUnits="userSpaceOnUse"
       id="clipPath12265">
      <path
         inkscape:connector-curvature="0"
         d="m 88.5806,575.191 3.9619,0 0,-3.962 -3.9619,0 0,3.962 z"
         id="path12267" />
    </clipPath>
    <clipPath
       clipPathUnits="userSpaceOnUse"
       id="clipPath12249">
      <path
         inkscape:connector-curvature="0"
         d="m 27.7373,560.469 3.9619,0 0,-3.962 -3.9619,0 0,3.962 z"
         id="path12251" />
    </clipPath>
    <clipPath
       clipPathUnits="userSpaceOnUse"
       id="clipPath12233">
      <path
         inkscape:connector-curvature="0"
         d="m 28.2373,554.757 6.25,0 0,-6.25 -6.25,0 0,6.25 z"
         id="path12235" />
    </clipPath>
    <clipPath
       clipPathUnits="userSpaceOnUse"
       id="clipPath12185">
      <path
         inkscape:connector-curvature="0"
         d="m 77.2139,489.496 3.3437,0 0,-3.344 -3.3437,0 0,3.344 z"
         id="path12187" />
    </clipPath>
    <clipPath
       clipPathUnits="userSpaceOnUse"
       id="clipPath12169">
      <path
         inkscape:connector-curvature="0"
         d="m 92.918,510.974 5.2744,0 0,-5.274 -5.2744,0 0,5.274 z"
         id="path12171" />
    </clipPath>
  </defs>
  <sodipodi:namedview
     id="base"
     pagecolor="#ffffff"
     bordercolor="#666666"
     borderopacity="1.0"
     inkscape:pageopacity="0.0"
     inkscape:pageshadow="2"
     inkscape:zoom="1.4"
     inkscape:cx="64.296179"
     inkscape:cy="70.000329"
     inkscape:document-units="px"
     inkscape:current-layer="layer1"
     showgrid="false"
     fit-margin-top="0"
     fit-margin-left="0"
     fit-margin-right="0"
     fit-margin-bottom="0"
     inkscape:window-width="1215"
     inkscape:window-height="776"
     inkscape:window-x="65"
     inkscape:window-y="24"
     inkscape:window-maximized="1" />
  <metadata
     id="metadata15219">
    <rdf:RDF>
      <cc:Work
         rdf:about="">
        <dc:format>image/svg+xml</dc:format>
        <dc:type
           rdf:resource="http://purl.org/dc/dcmitype/StillImage" />
        <dc:title></dc:title>
      </cc:Work>
    </rdf:RDF>
  </metadata>
  <g
     inkscape:label="Layer 1"
     inkscape:groupmode="layer"
     id="layer1"
     transform="translate(-158.7434,-810.64182)">
    <g
       id="g13923"
       transform="matrix(1.25,0,0,-1.25,173.17978,858.47217)">
      <path
         d="m 0,0 c 0,-18.15 14.71,-32.86 32.856,-32.86 18.15,0 32.861,14.71 32.861,32.86 0,18.147 -14.711,32.856 -32.861,32.856 C 14.71,32.856 0,18.147 0,0 z"
         style="fill:none;stroke:#292929;stroke-width:4.80900002;stroke-linecap:butt;stroke-linejoin:miter;stroke-miterlimit:4;stroke-opacity:1;stroke-dasharray:none"
         id="path13925"
         inkscape:connector-curvature="0" />
    </g>
    <g
       id="g13927"
       transform="matrix(1.25,0,0,-1.25,195.01216,855.34654)">
      <path
         d="M 0,0 C 0,-2.618 2.128,-4.746 4.745,-4.746 7.37,-4.746 9.497,-2.618 9.497,0 9.497,2.621 7.37,4.749 4.745,4.749 2.128,4.749 0,2.621 0,0"
         style="fill:#292929;fill-opacity:1;fill-rule:nonzero;stroke:none"
         id="path13929"
         inkscape:connector-curvature="0" />
    </g>
    <g
       id="g13931"
       transform="matrix(1.25,0,0,-1.25,221.90052,853.77242)">
      <path
         d="M 0,0 C 0,-1.922 1.561,-3.487 3.486,-3.487 5.408,-3.487 6.97,-1.922 6.97,0 6.97,1.925 5.408,3.49 3.486,3.49 1.561,3.49 0,1.925 0,0"
         style="fill:#292929;fill-opacity:1;fill-rule:nonzero;stroke:none"
         id="path13933"
         inkscape:connector-curvature="0" />
    </g>
    <g
       id="g13935"
       transform="matrix(1.25,0,0,-1.25,208.37027,849.38454)">
      <path
         d="m 0,0 c -0.553,-0.323 -6.014,5.412 -12.324,7.965 -6.313,2.554 0.375,7.889 2.703,5.559 C -7.291,11.194 2.518,1.482 0,0"
         style="fill:#292929;fill-opacity:1;fill-rule:nonzero;stroke:none"
         id="path13937"
         inkscape:connector-curvature="0" />
    </g>
    <path
       style="fill:none;stroke:#000000;stroke-width:10;stroke-linecap:round;stroke-linejoin:round;stroke-miterlimit:4;stroke-opacity:1;stroke-dasharray:none"
       d="m 163.7434,897.78468 0,-70 12.85714,-12.14286"
       id="path4216"
       inkscape:connector-curvature="0" />
    <g
       id="g13939"
       transform="matrix(1.25,0,0,-1.25,220.32577,848.61429)">
      <path
         d="m 0,0 c 0.391,-0.493 7.527,2.944 14.34,3.099 6.806,0.165 2.428,7.52 -0.569,6.16 C 10.766,7.903 -1.843,2.277 0,0"
         style="fill:#292929;fill-opacity:1;fill-rule:nonzero;stroke:none"
         id="path13941"
         inkscape:connector-curvature="0" />
    </g>
    <path
       style="fill:none;stroke:#000000;stroke-width:10;stroke-linecap:round;stroke-linejoin:round;stroke-miterlimit:4;stroke-opacity:1;stroke-dasharray:none"
       d="m 265.17197,897.78468 0,-70 -12.85714,-12.14286"
       id="path4216-8"
       inkscape:connector-curvature="0" />
    <path
       style="fill:#ff7f2a;stroke-width:10;stroke-linecap:round;stroke-linejoin:round;stroke-miterlimit:4;stroke-dasharray:none"
       d="M 34.867609,80.523617 C 21.260196,76.911801 10.217573,65.405532 7.3437914,51.84416 5.9518333,45.275511 6.0401346,41.46147 7.7378484,34.823472 11.048223,21.88003 21.042694,11.636528 34.104395,7.7999519 39.619215,6.1800997 49.293366,6.3088874 55.022462,8.0784251 74.601656,14.125822 85.996223,35.46067 80.031359,54.904342 74.202169,73.905765 53.71607,85.526567 34.867609,80.523617 z m 0.535714,-35.71566 c 4.452833,-4.98344 -1.554578,-12.38583 -7.539879,-9.290711 -2.333713,1.20681 -2.995835,2.406666 -2.995835,5.428864 0,3.10266 0.725399,4.354855 3.142615,5.424825 2.825622,1.25075 5.357172,0.715554 7.393099,-1.562978 z m 23.872328,-2.186839 c 2.712278,-2.454577 0.612657,-8.10358 -3.011939,-8.10358 -1.812485,0 -4.967532,3.054104 -4.967532,4.808599 0,0.716159 0.500369,2.016483 1.111931,2.889611 1.349142,1.926169 4.952078,2.138839 6.86754,0.40537 l 0,0 z m -20.449802,-9.3111 c -0.58874,-2.345724 -3.61292,-6.375255 -8.877113,-11.828194 -4.380455,-4.537515 -6.81244,-5.232973 -9.366842,-2.678572 -2.977586,2.977587 -1.960484,4.326584 7.142857,9.473674 1.767858,0.999558 4.660715,2.970201 6.428572,4.379205 3.942781,3.142447 5.346415,3.338876 4.672526,0.653887 z m 16.128044,0.105649 c 1.717669,-0.60603 6.01701,-1.59991 9.55409,-2.208625 3.53708,-0.608713 6.83284,-1.437943 7.323911,-1.842732 2.314946,-1.908201 -0.05225,-6.990633 -3.254788,-6.988118 -2.843241,0.0022 -16.490197,7.220562 -18.162845,9.606932 -0.849862,1.212499 -0.622987,2.534414 0.434971,2.534414 0.539894,0 2.386991,-0.495842 4.104661,-1.101871 l 0,0 z"
       id="path5023"
       inkscape:connector-curvature="0"
       transform="translate(170.17197,814.40967)" />
    <path
       style="fill:#aa4400;stroke-width:10;stroke-linecap:round;stroke-linejoin:round;stroke-miterlimit:4;stroke-dasharray:none"
       d="M 44.865963,83.372889 C 36.520777,80.6266 29.113342,74.86082 24.172395,67.265481 13.5068,50.870079 18.072328,29.061942 34.60024,17.454841 c 7.273893,-5.108255 12.675724,-6.569402 22.847528,-6.180055 7.411403,0.283688 8.442883,0.503833 13.333475,2.845715 11.51777,5.515337 18.90595,15.42164 21.3552,28.633711 2.979629,16.073128 -7.52002,33.430765 -24.136598,39.901748 -5.747927,2.238407 -17.412103,2.599886 -23.133882,0.716929 l 0,0 z m 1.628018,-34.31827 c 1.424998,-1.424998 2.087912,-2.803161 2.087912,-4.340659 0,-2.812156 -3.365686,-6.428571 -5.982874,-6.428571 -3.257368,0 -5.409469,1.499054 -6.268539,4.366372 -2.048197,6.836276 5.177806,11.388553 10.163501,6.402858 l 0,0 z m 24.536892,-2.605965 c 1.434295,-1.434295 1.439257,-4.53595 0.01051,-6.575761 -2.015098,-2.876955 -6.09882,-1.667498 -8.457696,2.504876 -0.529018,0.935726 0.691534,3.77434 1.997987,4.646682 1.391283,0.928984 5.29274,0.580654 6.449191,-0.575797 l 4e-6,0 z M 50.72475,37.649681 c 0,-3.624337 -12.064856,-16.50715 -15.459077,-16.50715 -2.021449,0 -5.255208,2.450748 -5.255208,3.98273 0,1.14642 3.111844,3.658325 11.428571,9.225232 7.166702,4.797123 9.285714,5.550002 9.285714,3.299188 z m 22.180694,-1.568612 c 5.282761,-1.212375 10.006806,-2.537447 10.497878,-2.944603 1.359802,-1.127437 1.065551,-4.473381 -0.519555,-5.907882 -1.927189,-1.744081 -5.145619,-1.136075 -11.902478,2.248546 -6.241444,3.126441 -10.747269,6.722085 -9.979803,7.963872 0.721074,1.166721 1.06622,1.127291 11.903958,-1.359933 l 0,0 z"
       id="path3031"
       inkscape:connector-curvature="0"
       transform="translate(158.7434,810.64182)" />
  </g>
</svg>
